<?xml version="1.0" encoding="UTF-8" standalone="no"?>
<!-- Created with Inkscape (http://www.inkscape.org/) -->

<svg
   xmlns:dc="http://purl.org/dc/elements/1.1/"
   xmlns:cc="http://creativecommons.org/ns#"
   xmlns:rdf="http://www.w3.org/1999/02/22-rdf-syntax-ns#"
   xmlns:svg="http://www.w3.org/2000/svg"
   xmlns="http://www.w3.org/2000/svg"
   xmlns:sodipodi="http://sodipodi.sourceforge.net/DTD/sodipodi-0.dtd"
   xmlns:inkscape="http://www.inkscape.org/namespaces/inkscape"
   width="550"
   height="380"
   viewBox="0 0 550.00001 380.00001"
   id="svg4988"
   version="1.1"
   inkscape:version="0.91 r13725"
   sodipodi:docname="snj_page_logo.svg">
  <defs
     id="defs4990">
    <clipPath
       clipPathUnits="userSpaceOnUse"
       id="clipPath4486">
      <path
         d="m 0,1699.346 2537.346,0 L 2537.346,0 0,0 0,1699.346 Z"
         id="path4488"
         inkscape:connector-curvature="0" />
    </clipPath>
  </defs>
  <sodipodi:namedview
     id="base"
     pagecolor="#ffffff"
     bordercolor="#666666"
     borderopacity="1.0"
     inkscape:pageopacity="0.0"
     inkscape:pageshadow="2"
     inkscape:zoom="0.98994949"
     inkscape:cx="258.26712"
     inkscape:cy="160.49776"
     inkscape:document-units="px"
     inkscape:current-layer="layer1"
     showgrid="false"
     units="px"
     inkscape:window-width="1280"
     inkscape:window-height="738"
     inkscape:window-x="-8"
     inkscape:window-y="-8"
     inkscape:window-maximized="1" />
  <metadata
     id="metadata4993">
    <rdf:RDF>
      <cc:Work
         rdf:about="">
        <dc:format>image/svg+xml</dc:format>
        <dc:type
           rdf:resource="http://purl.org/dc/dcmitype/StillImage" />
        <dc:title></dc:title>
      </cc:Work>
    </rdf:RDF>
  </metadata>
  <g
     inkscape:label="Layer 1"
     inkscape:groupmode="layer"
     id="layer1"
     transform="translate(0,-672.36216)">
    <g
       id="g4490"
       transform="matrix(0.17849655,0,0,-0.17849655,422.98096,965.8623)"
       style="fill:#ffffff">
      <path
         d="m 0,0 c 0,19.469 -2.847,36.26 -8.554,50.375 -7.669,19.055 -19.39,28.574 -35.117,28.574 -12.822,0 -22.347,-6.303 -28.66,-18.928 -5.115,-10.054 -7.668,-22.583 -7.668,-37.548 l 0,-7.553 0,-7.531 c 0,-14.77 3.493,-28.465 10.423,-41.096 8.143,-14.738 18.712,-22.143 31.802,-22.143 13.675,0 23.707,5.891 30.049,17.674 C -2.548,-28.775 0,-16.045 0,0 m 26.588,12.84 c 0,-21.613 -6.368,-39.942 -19.067,-55.041 -12.674,-15.086 -28.873,-22.627 -48.556,-22.627 -19.481,0 -35.41,7.058 -47.817,21.176 -12.406,14.123 -18.59,31.785 -18.59,52.963 0,21.826 6.484,40.332 19.476,55.521 13.005,15.184 29.52,22.781 49.6,22.781 19.066,0 34.665,-7.101 46.772,-21.332 C 20.513,52.049 26.588,34.244 26.588,12.84 m -149.397,131.576 c -1.961,0 -4.116,-0.152 -6.483,-0.477 -2.37,-0.33 -4.237,-0.591 -5.6,-0.806 -6.513,-1.057 -10.775,-4.231 -12.844,-9.451 -2.076,-5.256 -3.109,-11.827 -3.109,-19.744 l 0,-114.575 c 0,-19.035 -3.938,-34.34 -11.783,-45.886 -8.859,-13.059 -21.967,-19.584 -39.295,-19.584 -8.644,0 -16.312,2.136 -23.029,6.41 -8.058,5.154 -12.081,12.322 -12.081,21.521 0,8.969 4.231,13.475 12.699,13.475 6.69,0 12.082,-4.873 16.228,-14.617 4.109,-9.719 8.351,-14.592 12.699,-14.592 3.937,0 7.131,1.91 9.592,5.787 2.46,3.853 3.675,7.906 3.675,12.18 l 0,149.881 c 0,12.191 -2.047,20.318 -6.191,24.373 -4.14,4.089 -11.815,6.105 -23.035,6.105 l 0,6.746 88.557,0 0,-6.746 z M -419.472,-28.549 c -14.86,20.1 -25.198,35.453 -31.034,46.033 -5.86,10.6 -10.745,21.344 -14.708,32.274 -10.422,-5.77 -18.505,-12.197 -24.22,-19.268 -7.283,-8.988 -10.927,-19.041 -10.927,-30.178 0,-13.025 3.998,-24.427 12.026,-34.16 7.962,-9.742 18,-14.597 30.051,-14.597 6.924,0 13.614,1.744 20.154,5.299 6.52,3.521 12.767,8.371 18.658,14.597 m 9.444,148.58 c 0,7.283 -1.928,13.426 -5.744,18.461 -3.853,5.02 -9.122,7.547 -15.807,7.547 -7.845,0 -13.621,-3.064 -17.266,-9.146 -3.638,-6.098 -5.447,-13.53 -5.447,-22.321 0,-6.636 0.893,-13.797 2.663,-21.502 1.16,-5.134 3.32,-12.193 6.484,-21.168 9.835,4.914 17.913,11.223 24.226,18.92 7.246,8.989 10.891,18.744 10.891,29.209 m 89.743,-152.754 c -7.076,-10.394 -13.474,-17.914 -19.19,-22.683 -8.052,-6.899 -16.611,-10.379 -25.666,-10.379 -8.853,0 -17.822,3.148 -26.881,9.396 -7.286,4.994 -14.538,11.996 -21.821,21.088 -7.706,-9.207 -17.328,-16.578 -28.903,-22.142 -11.515,-5.569 -23.004,-8.342 -34.434,-8.342 -14.415,0 -26.613,4.603 -36.564,13.785 -9.978,9.209 -14.952,21.527 -14.952,36.922 0,16.904 6.611,31.982 19.788,45.232 8.253,8.352 21.631,17.889 40.136,28.573 -2.956,7.498 -5.204,14.671 -6.778,21.503 -1.593,6.862 -2.369,13.809 -2.369,20.868 0,15.189 4.269,27.92 12.857,38.195 8.549,10.269 19.8,15.396 33.776,15.396 10.043,0 18.481,-3.142 25.258,-9.462 6.783,-6.325 10.183,-14.817 10.183,-25.52 0,-12.84 -5.037,-24.385 -15.073,-34.654 -6.483,-6.635 -16.724,-14.006 -30.698,-22.149 5.115,-11.547 11.136,-23.006 18.028,-34.343 5.685,-9.42 12.877,-20.223 21.559,-32.409 7.455,9.631 13.467,18.94 17.998,27.92 5.891,11.973 8.846,22.787 8.846,32.42 0,4.696 -1.531,8.072 -4.586,10.112 -3.051,2.025 -7.13,3.365 -12.251,3.998 l 0,6.099 57.872,0 0,-6.099 c -4.738,0 -9,-1.27 -12.938,-3.834 -3.107,-1.936 -8.016,-8.573 -14.653,-19.909 -2.783,-4.5 -8.821,-15.412 -18.266,-32.75 -7.047,-12.814 -12.314,-21.599 -15.838,-26.314 6.484,-8.649 13.261,-15.666 20.368,-21.051 9.065,-6.904 17.797,-10.396 26.265,-10.396 6.099,0 11.13,1.673 15.062,4.914 l 10.012,11.136 3.853,-5.121 z m -337.111,75.405 c 0,9.207 -2.692,17.23 -8.114,24.086 -5.416,6.837 -12.138,10.257 -20.221,10.257 -9.646,0 -17.375,-3.627 -23.176,-10.898 -5.806,-7.277 -9.297,-16.369 -10.483,-27.299 l 58.446,0 c 2.364,0 3.548,1.295 3.548,3.854 m 35.735,-52.95 c -6.687,-16.044 -14.77,-28.66 -24.214,-37.855 -11.431,-11.137 -24.403,-16.705 -38.965,-16.705 -17.528,0 -31.681,7.592 -42.517,22.793 -9.83,13.896 -14.768,30.801 -14.768,50.699 0,20.545 5.531,38.518 16.551,53.928 11.984,16.685 27.235,25.021 45.734,25.021 14.989,0 27.182,-5.668 36.626,-17.011 9.445,-11.338 14.152,-25.02 14.152,-41.065 l -91.213,0 c 0,-18.185 3.377,-33.713 10.031,-46.541 8.292,-15.844 20.282,-23.748 36.027,-23.748 9.244,0 18.298,3.375 27.157,10.107 8.853,6.743 15.539,14.704 20.069,23.911 l 5.33,-3.534 z m -136.4,-51.029 -64.039,0 0,5.776 c 7.284,0 12.645,1.658 16.077,4.97 3.437,3.315 5.183,8.619 5.183,15.903 l 0,64.49 c 0,10.918 -1.599,19.594 -4.738,26.004 -4.147,8.351 -10.838,12.504 -20.074,12.504 -5.715,0 -11.216,-1.582 -16.515,-4.795 -4.152,-2.575 -8.676,-6.543 -13.597,-11.873 l 0,-84.731 c 0,-8.353 1.331,-14.187 4.005,-17.502 2.655,-3.312 7.809,-4.97 15.484,-4.97 l 0,-5.776 -64.638,0 0,5.776 c 3.73,0 6.869,0.269 9.444,0.806 2.548,0.518 4.915,1.772 7.084,3.694 1.562,2.351 2.601,5.121 3.107,8.345 0.469,3.199 0.733,6.942 0.733,11.233 l 0,77.336 0,10.599 c 0,5.776 -2.425,8.662 -7.185,8.662 l -13.183,0.637 0,6.111 c 8.261,1.703 15.545,3.676 21.821,5.922 6.306,2.254 14.091,5.514 23.328,9.789 l 0,-24.386 c 7.522,7.283 14.482,12.73 20.819,16.373 8.108,4.709 16.4,7.046 24.69,7.046 9.292,0 16.966,-3.138 23.029,-9.457 6.044,-6.324 9.689,-14.597 10.868,-24.873 l 0,-11.556 0,-11.551 0,-65.785 c 0,-7.283 1.421,-12.26 4.292,-14.922 2.844,-2.699 7.522,-4.023 14.005,-4.023 l 0,-5.776 z m -154.666,0 -64.655,0 0,5.776 c 5.501,0 9.646,0.646 12.401,1.916 3.937,1.943 6.305,5.246 7.076,9.953 l 0.884,12.209 0,78.935 0,10.619 c -0.591,5.116 -2.955,8.114 -7.069,8.969 l -11.815,0.322 0,5.778 c 7.426,1.267 16.723,3.955 27.86,8.019 7.607,3.012 12.991,5.137 16.129,6.414 l 0,-120.662 c 0,-7.478 1.459,-13.119 4.415,-16.844 2.967,-3.753 7.876,-5.628 14.774,-5.628 l 0,-5.776 z m -14.774,203.166 c 0,-4.5 -1.478,-8.469 -4.415,-11.875 -2.954,-3.431 -6.599,-5.152 -10.916,-5.152 -4.53,0 -8.321,1.654 -11.374,4.974 -3.052,3.317 -4.556,7.34 -4.556,12.053 0,4.908 1.504,9.029 4.556,12.346 3.053,3.314 6.844,4.974 11.374,4.974 4.317,0 7.962,-1.597 10.916,-4.816 2.937,-3.211 4.415,-7.387 4.415,-12.504 M -988.31,70.273 c 0,-3.841 -1.155,-7.162 -3.529,-9.929 -2.362,-2.795 -5.33,-4.176 -8.848,-4.176 -1.39,0 -4.328,1.49 -8.882,4.488 -4.499,3.002 -7.668,4.498 -9.451,4.498 -3.724,0 -7.662,-2.336 -11.778,-7.043 -1.982,-2.369 -4.829,-6.547 -8.558,-12.529 l 0,-78.631 c 0,-9.193 2.167,-15.396 6.484,-18.613 3.346,-2.576 9.322,-3.859 18.004,-3.859 l 0,-5.776 -71.444,0 0,5.776 c 8.083,0 13.828,1.984 17.259,5.953 3.467,3.89 5.184,10.359 5.184,19.359 l 0,74.553 -0.886,11.824 c -0.446,2.352 -1.361,4.176 -2.906,5.459 -1.538,1.277 -4.322,2.191 -8.523,2.728 -4.121,0.534 -7.527,0.799 -10.128,0.799 l 0,6.205 c 14.981,4.748 30.612,10.225 46.956,16.254 l 0,-28.886 c 5.298,7.705 10.421,13.81 15.341,18.298 7.071,6.428 13.854,9.621 20.369,9.621 3.131,0 6.477,-1.818 10.036,-5.447 3.554,-3.636 5.3,-7.283 5.3,-10.926 m -151.119,-105.837 0,80.347 c 0,8.828 -3.4,16.465 -10.208,23.035 -6.783,6.586 -14.305,9.866 -22.56,9.866 -12.412,0 -22.241,-6.063 -29.525,-18.096 -6.305,-10.336 -9.444,-22.682 -9.444,-37.07 0,-17.645 3.139,-32.889 9.444,-45.786 7.876,-16.357 19.189,-24.543 33.928,-24.543 5.123,0 10.013,1.069 14.628,3.243 4.622,2.16 9.207,5.152 13.737,9.004 m 41.01,-14.481 c -14.361,-4.291 -28.042,-9.215 -41.01,-14.783 l 0,20.223 c -6.892,-6.416 -13.2,-11.124 -18.915,-14.231 -7.466,-4.002 -14.952,-5.992 -22.411,-5.992 -16.937,0 -30.62,7.437 -41.041,22.262 -9.646,13.75 -14.47,30.166 -14.47,49.304 0,21.022 5.416,39.321 16.247,54.774 11.814,16.967 27.151,25.463 46.04,25.463 5.513,0 11.576,-1.391 18.151,-4.176 6.599,-2.783 12.053,-6.184 16.399,-10.262 l 0,48.781 c 0,5.996 -0.5,10.172 -1.478,12.51 -1.599,3.865 -4.652,5.996 -9.151,6.436 l -10.038,0.31 0,4.813 c 12.383,2.783 21.943,5.365 28.629,7.705 3.345,1.062 8.858,3.429 16.526,7.056 l 0,-188.697 0,-9.949 c 0.379,-1.932 1.539,-3.434 3.346,-4.502 1.038,-0.428 2.962,-0.756 5.709,-0.957 2.759,-0.227 5.213,-0.313 7.467,-0.313 l 0,-5.775 z m -154.373,-11.252 -64.07,0 0,5.776 c 7.284,0 12.645,1.658 16.106,4.97 3.431,3.315 5.146,8.619 5.146,15.903 l 0,64.49 c 0,10.918 -1.562,19.594 -4.701,26.004 -4.145,8.351 -10.835,12.504 -20.074,12.504 -5.714,0 -11.221,-1.582 -16.552,-4.795 -4.113,-2.575 -8.65,-6.543 -13.559,-11.873 l 0,-84.731 c 0,-8.353 1.337,-14.187 3.969,-17.502 2.667,-3.312 7.844,-4.97 15.513,-4.97 l 0,-5.776 -64.661,0 0,5.776 c 3.731,0 6.899,0.269 9.445,0.806 2.576,0.518 4.946,1.772 7.106,3.694 1.569,2.351 2.601,5.121 3.078,8.345 0.506,3.199 0.745,6.942 0.745,11.233 l 0,77.336 0,10.599 c 0,5.776 -2.407,8.662 -7.174,8.662 l -13.2,0.637 0,6.111 c 8.261,1.703 15.545,3.676 21.85,5.922 6.302,2.254 14.061,5.514 23.329,9.789 l 0,-24.386 c 7.522,7.283 14.445,12.73 20.813,16.373 8.115,4.709 16.374,7.046 24.696,7.046 9.293,0 16.962,-3.138 23.035,-9.457 6.034,-6.324 9.678,-14.597 10.867,-24.873 l 0,-11.556 0,-11.551 0,-65.785 c 0,-7.283 1.418,-12.26 4.263,-14.922 2.87,-2.699 7.545,-4.023 14.03,-4.023 l 0,-5.776 z m -199.253,29.219 0,55.187 c -15.551,-5.769 -26.467,-10.8 -32.78,-15.064 -12.375,-8.35 -18.59,-18.416 -18.59,-30.188 0,-7.064 2.307,-13.322 6.959,-18.781 4.616,-5.451 10.154,-8.181 16.668,-8.181 4.5,0 9.621,1.73 15.336,5.148 5.716,3.43 9.861,7.381 12.407,11.879 m 47.224,-12.852 c -4.175,-5.976 -8.352,-10.476 -12.557,-13.466 -5.215,-3.86 -10.569,-5.772 -16.102,-5.772 -5.244,0 -9.182,1.748 -11.812,5.27 -2.729,3.535 -4.976,8.412 -6.753,14.628 -6.246,-5.359 -13.328,-10.013 -21.258,-13.974 -7.877,-3.957 -15.246,-5.924 -22.084,-5.924 -9.213,0 -16.82,3.141 -22.98,9.453 -6.154,6.299 -9.238,14.617 -9.238,24.86 0,17.351 9.03,31.472 27.144,42.371 9.244,5.568 25.38,11.769 48.416,18.621 l 0,16.691 c 0,10.283 -1.277,17.652 -3.852,22.141 -3.523,5.988 -9.916,8.98 -19.184,8.98 -5.299,0 -10.421,-1.437 -15.336,-4.33 -4.915,-2.894 -7.376,-7.002 -7.376,-12.351 0,-1.08 0.184,-3.004 0.593,-5.776 0.385,-2.795 0.562,-4.271 0.562,-4.486 0,-3.639 -1.155,-6.746 -3.524,-9.324 -2.368,-2.559 -5.323,-3.854 -8.852,-3.854 -3.553,0 -6.593,1.192 -9.152,3.531 -2.57,2.364 -4.048,5.469 -4.433,9.323 0,11.545 5.502,20.548 16.516,26.943 9.066,5.359 19.488,8.021 31.302,8.021 12.991,0 23.713,-3.308 32.174,-9.945 9.829,-7.693 14.782,-18.297 14.782,-31.765 l 0,-76.713 c 0,-4.264 0.476,-7.803 1.447,-10.575 1.006,-2.796 3.259,-4.171 6.808,-4.171 2.166,0 3.967,0.355 5.451,1.111 1.476,0.752 3.492,2.185 6.069,4.336 l 3.229,-3.854 z m -148.78,42.371 c 0,-20.123 -5.855,-35.732 -17.553,-46.869 -11.728,-11.125 -27.004,-16.679 -45.924,-16.679 -5.293,0 -11.753,0.916 -19.33,2.728 -7.551,1.813 -15.281,3.682 -23.157,5.609 -1.594,0 -3.346,-0.908 -5.33,-2.783 -1.954,-1.867 -3.138,-3.687 -3.517,-5.554 l -5.037,0 -11.221,68.673 6.215,0 c 7.668,-17.316 14.952,-30.168 21.827,-38.509 10.629,-12.825 22.736,-19.256 36.327,-19.256 9.829,0 18.529,3.701 26.112,11.07 7.576,7.375 11.361,16.315 11.361,26.859 0,8.551 -2.954,16.696 -8.845,24.389 -4.739,6.19 -11.277,11.977 -19.715,17.326 l -30.471,19.543 c -11.014,6.821 -19.69,14.532 -25.966,23.092 -7.492,10.27 -11.222,21.508 -11.222,33.695 0,16.27 5.66,29.475 16.966,39.641 11.313,10.154 24.752,15.244 40.296,15.244 4.914,0 10.421,-0.853 16.514,-2.568 13.598,-4.268 21.766,-6.43 24.526,-6.43 2.155,0 3.993,0.916 5.445,2.74 1.478,1.821 2.217,3.897 2.217,6.258 l 4.738,0 6.484,-64.508 -6.185,0 c -4.36,14.983 -10.453,27.176 -18.298,36.596 -9.652,11.545 -20.874,17.314 -33.665,17.314 -8.846,0 -16.52,-2.986 -23.035,-8.988 -6.484,-5.994 -9.744,-13.687 -9.744,-23.107 0,-8.127 3.053,-15.723 9.151,-22.779 3.56,-4.065 9.861,-9.415 18.89,-16.032 l 33.958,-22.15 c 11.015,-6.643 19.574,-13.908 25.667,-21.852 7.675,-9.822 11.521,-20.746 11.521,-32.713"
         style="fill:#ffffff;fill-opacity:1;fill-rule:nonzero;stroke:none"
         id="path4492"
         inkscape:connector-curvature="0" />
    </g>
    <g
       id="g5657"
       transform="matrix(1.2421997,0,0,1.2421997,-69.007183,-255.68823)"
       style="fill:#ffffff">
      <g
         style="fill:#ffffff"
         transform="matrix(0.3079718,0,0,-0.3079718,249.54115,814.68578)"
         id="g4494">
        <path
           inkscape:connector-curvature="0"
           id="path4496"
           style="fill:#ffffff;fill-opacity:1;fill-rule:evenodd;stroke:none"
           d="m 0,0 c -5.757,19.591 -29.644,13.85 -34.298,3.116 -5.788,-12.801 9.463,-23.963 17.806,-18.037 -9.905,1.194 -17.348,11.529 -10.885,19.682 8.728,9.027 21.973,3.469 24.544,-4.37 7.825,-15.098 -9.019,-26.276 -21.528,-26.375 l 5.114,-5.107 c 3.476,0.644 7.211,1.791 11.225,3.567 C 4.21,-23.159 10.366,-3.53 0,0" />
      </g>
      <g
         style="fill:#ffffff"
         transform="matrix(0.3079718,0,0,-0.3079718,250.46087,827.79276)"
         id="g4498">
        <path
           inkscape:connector-curvature="0"
           id="path4500"
           style="fill:#ffffff;fill-opacity:1;fill-rule:evenodd;stroke:none"
           d="m 0,0 c 1.224,0.919 2.863,1.377 4.088,2.312 14.423,8.566 24.866,24.392 24.346,41.679 -0.047,8.873 -3.509,18.159 -8.422,25.83 0.535,0.016 23.121,14.057 15.128,37.285 -12.465,18.986 -29.43,6.921 -29.354,7.005 0,0 40.486,-6.477 11.333,-40.324 -16.874,18.788 -40.072,12.419 -42.966,11.883 -1.945,0.964 -1.898,3.721 -2.833,5.634 -2.816,8.866 -1.593,18.573 3.308,26.245 1.73,-5.452 3.812,-11.691 14.454,-11.813 0.536,1.447 -6.186,16.82 12.709,26.649 12.035,4.87 25.143,0.698 34.757,-7.104 C 54.05,110.062 57.418,83.618 53.024,62.656 50.467,52.136 46.593,42.521 41.265,33.931 31.602,19.707 17.914,6.83 0,0 m -24.531,82.454 c 0.567,0.567 24.668,5.796 39.352,-9.876 -19.567,-9.064 -37.054,3.598 -39.352,9.876 M 47.036,29.23 c 25.388,5.864 33.487,35.83 37.929,52.466 0.32,1.049 0.642,2.09 0.995,3.116 l 0,11.652 C 83.403,85.991 77.416,62.946 73.159,58.675 c 7.624,19.92 8.054,40.361 12.801,60.397 l 0,8.292 C 76.375,96.296 74.414,44.718 58.781,40.974 c 0.567,0.827 13.383,60.91 -7.916,71.644 -23.917,44.924 -66.087,23.688 -71.934,14.822 -0.705,-0.613 -20.35,-20.028 -8.667,-42.337 0,0 -16.339,-5.053 -22.876,-19.231 -2.588,-6.34 -3.858,-13.353 -3.827,-20.197 l 4.701,-4.701 c -2.527,16.69 6.322,36.243 23.993,40.178 C -21.852,66.697 4.195,61.277 17.531,69.087 33.563,46.272 19.753,6.599 -9.449,-1.317 l 7.642,-7.641 C 20.731,-4.479 45.124,7.61 47.036,29.23" />
      </g>
      <g
         style="fill:#ffffff"
         transform="matrix(0.3079718,0,0,-0.3079718,276.9341,812.96681)"
         id="g4502">
        <path
           inkscape:connector-curvature="0"
           id="path4504"
           style="fill:#ffffff;fill-opacity:1;fill-rule:evenodd;stroke:none"
           d="m 0,0 c -12.603,-29.767 -36.81,-60.115 -83.19,-61.677 l 5.299,-5.297 c 3.139,0.138 6.37,0.413 9.693,0.841 15.127,2.841 45.077,15.887 68.198,34.912 L 0,0 Z" />
      </g>
      <g
         style="fill:#ffffff"
         transform="matrix(0.3079718,0,0,-0.3079718,234.04105,830.18841)"
         id="g4506">
        <path
           inkscape:connector-curvature="0"
           id="path4508"
           style="fill:#ffffff;fill-opacity:1;fill-rule:evenodd;stroke:none"
           d="M 0,0 C -19.599,5.758 -13.857,29.636 -3.124,34.299 9.678,40.086 20.839,24.829 14.913,16.491 13.718,26.398 3.369,33.832 -4.778,27.377 -13.796,18.643 -8.238,5.397 -0.399,2.833 14.699,-4.991 25.877,11.844 25.969,24.354 l 5.114,-5.107 C 30.44,15.771 29.291,12.035 27.515,8.023 23.151,-4.219 3.521,-10.374 0,0" />
      </g>
      <g
         style="fill:#ffffff"
         transform="matrix(0.3079718,0,0,-0.3079718,247.14596,831.10783)"
         id="g4510">
        <path
           inkscape:connector-curvature="0"
           id="path4512"
           style="fill:#ffffff;fill-opacity:1;fill-rule:evenodd;stroke:none"
           d="m 0,0 c -0.936,-1.225 -1.38,-2.864 -2.314,-4.088 -8.574,-14.423 -24.392,-24.882 -41.677,-24.346 -8.881,0.045 -18.16,3.506 -25.833,8.406 -0.014,-0.521 -14.054,-23.097 -37.283,-15.113 -18.988,12.464 -6.922,29.43 -6.997,29.353 0,0 6.46,-40.485 40.315,-11.331 -18.787,16.881 -12.418,40.071 -11.882,42.965 -0.965,1.945 -3.722,1.9 -5.634,2.833 -8.866,2.817 -18.572,1.592 -26.244,-3.307 5.45,-1.731 11.682,-3.813 11.805,-14.455 -1.439,-0.536 -16.813,6.186 -26.644,-12.716 -4.867,-12.036 -0.689,-25.142 7.105,-34.751 15.22,-17.501 41.664,-20.87 62.626,-16.475 10.519,2.549 20.135,6.439 28.726,11.759 C -19.708,-31.611 -6.831,-17.916 0,0 m -82.457,24.53 c -0.565,-0.575 -5.786,-24.668 9.877,-39.352 9.065,19.569 -3.597,37.054 -9.877,39.352 m 53.226,-71.568 c -5.865,-25.388 -35.829,-33.487 -52.475,-37.927 -1.04,-0.322 -2.082,-0.651 -3.109,-0.996 l -11.651,0 c 10.474,2.549 33.517,8.544 37.791,12.785 -19.922,-7.609 -40.362,-8.038 -60.391,-12.785 l -8.298,0 c 31.067,9.586 82.637,11.538 86.389,27.179 -0.826,-0.566 -60.912,-13.383 -71.644,7.916 -44.925,23.918 -23.687,66.086 -14.824,71.935 0.614,0.712 20.029,20.349 42.339,8.666 0,0 5.053,16.346 19.232,22.875 6.339,2.589 13.351,3.86 20.196,3.829 l 4.701,-4.701 C -57.666,54.257 -77.219,45.415 -81.153,27.746 -66.7,21.842 -61.28,-4.195 -69.089,-17.541 -46.273,-33.563 -6.615,-19.752 1.315,9.447 L 8.957,1.807 C 4.47,-20.724 -7.611,-45.124 -29.231,-47.038" />
      </g>
      <g
         style="fill:#ffffff"
         transform="matrix(0.3079718,0,0,-0.3079718,232.31939,857.58136)"
         id="g4514">
        <path
           inkscape:connector-curvature="0"
           id="path4516"
           style="fill:#ffffff;fill-opacity:1;fill-rule:evenodd;stroke:none"
           d="m 0,0 c 29.769,12.602 60.115,36.802 61.676,83.189 l 5.299,-5.297 C 66.838,74.752 66.562,71.515 66.133,68.184 63.286,53.07 50.253,23.128 31.222,0 L 0,0 Z" />
      </g>
      <g
         style="fill:#ffffff"
         transform="matrix(0.3079718,0,0,-0.3079718,319.82699,830.18841)"
         id="g4518">
        <path
           inkscape:connector-curvature="0"
           id="path4520"
           style="fill:#ffffff;fill-opacity:1;fill-rule:evenodd;stroke:none"
           d="m 0,0 c 19.6,5.758 13.857,29.636 3.124,34.299 -12.801,5.787 -23.963,-9.47 -18.037,-17.808 1.195,9.907 11.529,17.341 19.677,10.886 9.032,-8.734 3.474,-21.98 -4.365,-24.544 -15.097,-7.824 -26.275,9.011 -26.382,21.521 l -5.099,-5.107 c 0.643,-3.476 1.793,-7.212 3.567,-11.224 C -23.165,-4.219 -3.521,-10.374 0,0" />
      </g>
      <g
         style="fill:#ffffff"
         transform="matrix(0.3079718,0,0,-0.3079718,306.72224,831.10783)"
         id="g4522">
        <path
           inkscape:connector-curvature="0"
           id="path4524"
           style="fill:#ffffff;fill-opacity:1;fill-rule:evenodd;stroke:none"
           d="m 0,0 c 0.92,-1.225 1.378,-2.864 2.314,-4.088 8.558,-14.423 24.392,-24.882 41.677,-24.346 8.88,0.045 18.16,3.506 25.832,8.406 0.015,-0.521 14.055,-23.097 37.284,-15.113 18.988,12.464 6.921,29.43 6.997,29.353 0,0 -6.477,-40.485 -40.33,-11.331 18.803,16.881 12.433,40.071 11.897,42.965 0.964,1.945 3.722,1.9 5.634,2.833 8.866,2.817 18.572,1.592 26.244,-3.307 -5.45,-1.731 -11.697,-3.813 -11.82,-14.455 1.455,-0.536 16.828,6.186 26.658,-12.716 4.868,-12.036 0.69,-25.142 -7.105,-34.751 C 110.063,-54.051 83.618,-57.42 62.657,-53.025 52.138,-50.476 42.522,-46.586 33.916,-41.266 19.707,-31.611 6.831,-17.916 0,0 M 82.456,24.53 C 83.022,23.955 88.242,-0.138 72.58,-14.822 63.515,4.747 76.162,22.232 82.456,24.53 M 29.217,-47.038 c 5.879,-25.388 35.843,-33.487 52.471,-37.927 1.057,-0.322 2.084,-0.651 3.125,-0.996 l 11.653,0 c -10.474,2.549 -33.517,8.544 -37.791,12.785 19.922,-7.609 40.362,-8.038 60.39,-12.785 l 8.299,0 c -31.067,9.586 -82.652,11.538 -86.389,27.179 0.827,-0.566 60.91,-13.383 71.644,7.916 44.925,23.918 23.688,66.086 14.807,71.935 -0.597,0.712 -20.013,20.349 -42.322,8.666 0,0 -5.053,16.346 -19.232,22.875 -6.339,2.589 -13.351,3.86 -20.196,3.829 L 40.975,51.738 C 57.666,54.257 77.219,45.415 81.153,27.746 66.699,21.842 61.279,-4.195 69.089,-17.541 46.273,-33.563 6.601,-19.752 -1.316,9.447 l -7.64,-7.64 C -4.47,-20.724 7.611,-45.124 29.217,-47.038" />
      </g>
      <g
         style="fill:#ffffff"
         transform="matrix(0.3079718,0,0,-0.3079718,321.5488,857.58136)"
         id="g4526">
        <path
           inkscape:connector-curvature="0"
           id="path4528"
           style="fill:#ffffff;fill-opacity:1;fill-rule:evenodd;stroke:none"
           d="m 0,0 c -29.769,12.602 -60.115,36.802 -61.677,83.189 l -5.299,-5.297 c 0.138,-3.14 0.414,-6.377 0.844,-9.708 C -63.301,53.07 -50.254,23.128 -31.237,0 L 0,0 Z" />
      </g>
      <g
         style="fill:#ffffff"
         transform="matrix(0.3079718,0,0,-0.3079718,304.32705,814.68578)"
         id="g4530">
        <path
           inkscape:connector-curvature="0"
           id="path4532"
           style="fill:#ffffff;fill-opacity:1;fill-rule:evenodd;stroke:none"
           d="M 0,0 C 5.757,19.591 29.628,13.85 34.299,3.116 40.086,-9.685 24.82,-20.847 16.491,-14.921 26.397,-13.727 33.823,-3.392 27.377,4.761 18.635,13.788 5.39,8.23 2.833,0.391 -4.992,-14.707 11.836,-25.885 24.346,-25.984 l -5.099,-5.107 C 15.771,-30.447 12.035,-29.3 8.022,-27.524 -4.228,-23.159 -10.381,-3.53 0,0" />
      </g>
      <g
         style="fill:#ffffff"
         transform="matrix(0.3079718,0,0,-0.3079718,303.40735,827.79276)"
         id="g4534">
        <path
           inkscape:connector-curvature="0"
           id="path4536"
           style="fill:#ffffff;fill-opacity:1;fill-rule:evenodd;stroke:none"
           d="m 0,0 c -1.224,0.919 -2.863,1.377 -4.088,2.312 -14.423,8.566 -24.881,24.392 -24.346,41.679 0.046,8.873 3.508,18.159 8.407,25.83 -0.52,0.016 -23.106,14.057 -15.113,37.285 12.465,18.986 29.429,6.921 29.354,7.005 0,0 -40.485,-6.477 -11.333,-40.324 16.874,18.788 40.072,12.419 42.966,11.883 1.945,0.964 1.883,3.721 2.833,5.634 2.816,8.866 1.592,18.573 -3.308,26.245 -1.73,-5.452 -3.812,-11.691 -14.454,-11.813 -0.536,1.447 6.186,16.82 -12.709,26.649 -12.035,4.87 -25.157,0.698 -34.757,-7.104 -17.502,-15.219 -20.871,-41.663 -16.476,-62.625 2.557,-10.52 6.43,-20.135 11.758,-28.725 C -31.602,19.707 -17.913,6.83 0,0 M 24.53,82.454 C 23.947,83.021 -0.138,88.25 -14.836,72.578 4.746,63.514 22.233,76.176 24.53,82.454 M -47.037,29.23 c -25.387,5.864 -33.487,35.83 -37.928,52.466 -0.32,1.049 -0.658,2.09 -0.995,3.116 l 0,11.652 c 2.557,-10.473 8.544,-33.518 12.786,-37.789 -7.609,19.92 -8.04,40.361 -12.786,60.397 l 0,8.292 c 9.585,-31.068 11.53,-82.646 27.179,-86.39 -0.567,0.827 -13.383,60.91 7.915,71.644 23.918,44.924 66.088,23.688 71.934,14.822 0.707,-0.613 20.351,-20.028 8.668,-42.337 0,0 16.337,-5.053 22.875,-19.231 2.588,-6.34 3.861,-13.353 3.828,-20.197 L 51.738,40.974 C 54.265,57.664 45.416,77.217 27.73,81.152 21.837,66.697 -4.195,61.277 -17.546,69.087 -33.563,46.272 -19.753,6.599 9.447,-1.317 L 1.808,-8.958 C -20.731,-4.479 -45.124,7.61 -47.037,29.23" />
      </g>
      <g
         style="fill:#ffffff"
         transform="matrix(0.3079718,0,0,-0.3079718,276.9341,812.96681)"
         id="g4538">
        <path
           inkscape:connector-curvature="0"
           id="path4540"
           style="fill:#ffffff;fill-opacity:1;fill-rule:evenodd;stroke:none"
           d="m 0,0 c 12.603,-29.767 36.795,-60.115 83.189,-61.677 l -5.298,-5.297 c -3.139,0.138 -6.385,0.413 -9.707,0.841 C 53.071,-63.292 23.121,-50.246 0,-31.221 L 0,0 Z" />
      </g>
      <g
         style="fill:#ffffff"
         transform="matrix(0.3079718,0,0,-0.3079718,234.04105,884.97447)"
         id="g4542">
        <path
           inkscape:connector-curvature="0"
           id="path4544"
           style="fill:#ffffff;fill-opacity:1;fill-rule:evenodd;stroke:none"
           d="m 0,0 c -19.599,-5.756 -13.857,-29.644 -3.124,-34.297 12.802,-5.796 23.963,9.462 18.037,17.806 -1.195,-9.906 -11.544,-17.348 -19.691,-10.886 -9.018,8.736 -3.46,21.98 4.379,24.545 15.098,7.817 26.276,-9.019 26.368,-21.521 l 5.114,5.106 c -0.643,3.476 -1.792,7.205 -3.568,11.216 C 23.151,4.211 3.521,10.374 0,0" />
      </g>
      <g
         style="fill:#ffffff"
         transform="matrix(0.3079718,0,0,-0.3079718,247.14596,884.05462)"
         id="g4546">
        <path
           inkscape:connector-curvature="0"
           id="path4548"
           style="fill:#ffffff;fill-opacity:1;fill-rule:evenodd;stroke:none"
           d="m 0,0 c -0.936,1.225 -1.38,2.863 -2.314,4.088 -8.574,14.424 -24.392,24.873 -41.677,24.345 -8.881,-0.045 -18.16,-3.514 -25.833,-8.413 -0.014,0.528 -14.054,23.105 -37.283,15.12 -18.988,-12.472 -6.922,-29.43 -6.997,-29.352 0,0 6.46,40.476 40.315,11.33 -18.787,-16.882 -12.418,-40.078 -11.882,-42.965 -0.965,-1.945 -3.722,-1.898 -5.634,-2.833 -8.866,-2.817 -18.572,-1.591 -26.244,3.3 5.45,1.738 11.682,3.812 11.805,14.462 -1.439,0.528 -16.813,-6.186 -26.644,12.709 -4.867,12.035 -0.689,25.142 7.105,34.75 15.22,17.509 41.664,20.878 62.626,16.483 10.519,-2.556 20.135,-6.438 28.726,-11.759 C -19.708,31.603 -6.831,17.915 0,0 m -82.457,-24.529 c -0.565,0.573 -5.786,24.666 9.877,39.35 9.065,-19.568 -3.597,-37.054 -9.877,-39.35 m 53.226,71.567 c -5.865,25.386 -35.829,33.479 -52.475,37.926 -1.04,0.323 -2.082,0.644 -3.109,0.996 l -11.651,0 c 10.474,-2.557 33.517,-8.544 37.791,-12.793 -19.922,7.618 -40.362,8.046 -60.391,12.793 l -8.298,0 c 31.067,-9.585 82.637,-11.538 86.389,-27.187 -0.826,0.576 -60.912,13.392 -71.644,-7.908 -44.925,-23.917 -23.687,-66.085 -14.824,-71.935 0.614,-0.72 20.029,-20.349 42.339,-8.666 0,0 5.053,-16.346 19.232,-22.876 6.339,-2.595 13.351,-3.858 20.196,-3.836 l 4.701,4.709 c -16.691,-2.527 -36.244,6.324 -40.178,23.994 14.453,5.895 19.873,31.94 12.064,45.284 22.816,16.016 62.474,2.213 70.404,-26.987 l 7.642,7.641 C 4.47,20.725 -7.611,45.123 -29.231,47.038" />
      </g>
      <g
         style="fill:#ffffff"
         transform="matrix(0.3079718,0,0,-0.3079718,232.31939,857.58136)"
         id="g4550">
        <path
           inkscape:connector-curvature="0"
           id="path4552"
           style="fill:#ffffff;fill-opacity:1;fill-rule:evenodd;stroke:none"
           d="m 0,0 c 29.769,-12.602 60.115,-36.801 61.676,-83.189 l 5.299,5.298 c -0.137,3.139 -0.413,6.378 -0.842,9.708 C 63.286,-53.078 50.253,-23.129 31.222,0 L 0,0 Z" />
      </g>
      <g
         style="fill:#ffffff"
         transform="matrix(0.3079718,0,0,-0.3079718,249.54115,900.47697)"
         id="g4554">
        <path
           inkscape:connector-curvature="0"
           id="path4556"
           style="fill:#ffffff;fill-opacity:1;fill-rule:evenodd;stroke:none"
           d="m 0,0 c -5.757,-19.59 -29.644,-13.85 -34.298,-3.116 -5.788,12.801 9.463,23.964 17.806,18.038 -9.905,-1.194 -17.348,-11.537 -10.885,-19.691 8.728,-9.019 21.973,-3.461 24.544,4.372 7.825,15.104 -9.019,26.282 -21.528,26.382 l 5.114,5.106 C -15.771,30.449 -12.036,29.3 -8.022,27.523 4.21,23.159 10.366,3.522 0,0" />
      </g>
      <g
         style="fill:#ffffff"
         transform="matrix(0.3079718,0,0,-0.3079718,250.46087,887.36981)"
         id="g4558">
        <path
           inkscape:connector-curvature="0"
           id="path4560"
           style="fill:#ffffff;fill-opacity:1;fill-rule:evenodd;stroke:none"
           d="m 0,0 c 1.224,-0.918 2.863,-1.385 4.088,-2.313 14.423,-8.566 24.866,-24.398 24.346,-41.678 -0.047,-8.881 -3.509,-18.159 -8.422,-25.839 0.535,-0.007 23.121,-14.048 15.128,-37.276 -12.465,-18.987 -29.43,-6.92 -29.354,-7.012 0,0 40.486,6.476 11.333,40.33 -16.874,-18.788 -40.072,-12.417 -42.966,-11.881 -1.945,-0.973 -1.898,-3.721 -2.833,-5.644 -2.816,-8.857 -1.593,-18.564 3.308,-26.235 1.73,5.45 3.812,11.69 14.454,11.804 0.536,-1.44 -6.186,-16.812 12.709,-26.651 12.035,-4.861 25.143,-0.688 34.757,7.112 17.502,15.214 20.87,41.665 16.476,62.627 -2.557,10.519 -6.431,20.135 -11.759,28.725 C 31.602,-19.706 17.914,-6.837 0,0 m -24.531,-82.454 c 0.567,-0.566 24.668,-5.803 39.352,9.876 -19.567,9.064 -37.054,-3.598 -39.352,-9.876 m 71.567,53.224 c 25.388,-5.865 33.487,-35.83 37.929,-52.466 0.32,-1.05 0.642,-2.091 0.995,-3.117 l 0,-11.651 c -2.557,10.473 -8.544,33.51 -12.801,37.781 7.624,-19.913 8.054,-40.354 12.801,-60.391 l 0,-8.29 c -9.585,31.061 -11.546,82.638 -27.179,86.389 0.567,-0.826 13.383,-60.917 -7.916,-71.643 -23.917,-44.924 -66.087,-23.688 -71.934,-14.822 -0.705,0.612 -20.35,20.027 -8.667,42.337 0,0 -16.339,5.053 -22.876,19.231 -2.588,6.339 -3.858,13.353 -3.827,20.189 l 4.701,4.708 c -2.527,-16.697 6.322,-36.243 23.993,-40.177 5.893,14.454 31.94,19.874 45.276,12.066 16.032,22.814 2.222,62.471 -26.98,70.402 l 7.642,7.642 C 20.731,4.471 45.124,-7.609 47.036,-29.23" />
      </g>
      <g
         style="fill:#ffffff"
         transform="matrix(0.3079718,0,0,-0.3079718,276.9341,902.19563)"
         id="g4562">
        <path
           inkscape:connector-curvature="0"
           id="path4564"
           style="fill:#ffffff;fill-opacity:1;fill-rule:evenodd;stroke:none"
           d="m 0,0 c -12.603,29.766 -36.81,60.106 -83.19,61.676 l 5.299,5.298 c 3.139,-0.139 6.37,-0.413 9.693,-0.842 C -53.071,63.284 -23.121,50.237 0,31.221 L 0,0 Z" />
      </g>
      <g
         style="fill:#ffffff"
         transform="matrix(0.3079718,0,0,-0.3079718,304.32705,900.47697)"
         id="g4566">
        <path
           inkscape:connector-curvature="0"
           id="path4568"
           style="fill:#ffffff;fill-opacity:1;fill-rule:evenodd;stroke:none"
           d="M 0,0 C 5.757,-19.59 29.628,-13.85 34.299,-3.116 40.086,9.685 24.82,20.848 16.491,14.922 26.397,13.728 33.823,3.385 27.377,-4.769 18.635,-13.788 5.39,-8.23 2.833,-0.397 -4.992,14.707 11.836,25.885 24.346,25.985 l -5.099,5.106 C 15.771,30.449 12.035,29.3 8.022,27.523 -4.228,23.159 -10.381,3.522 0,0" />
      </g>
      <g
         style="fill:#ffffff"
         transform="matrix(0.3079718,0,0,-0.3079718,303.40735,887.36981)"
         id="g4570">
        <path
           inkscape:connector-curvature="0"
           id="path4572"
           style="fill:#ffffff;fill-opacity:1;fill-rule:evenodd;stroke:none"
           d="m 0,0 c -1.224,-0.918 -2.863,-1.385 -4.088,-2.313 -14.423,-8.566 -24.881,-24.398 -24.346,-41.678 0.046,-8.881 3.508,-18.159 8.407,-25.839 -0.52,-0.007 -23.106,-14.048 -15.113,-37.276 12.465,-18.987 29.429,-6.92 29.354,-7.012 0,0 -40.485,6.476 -11.333,40.33 16.874,-18.788 40.072,-12.417 42.966,-11.881 1.945,-0.973 1.883,-3.721 2.833,-5.644 2.816,-8.857 1.592,-18.564 -3.308,-26.235 -1.73,5.45 -3.812,11.69 -14.454,11.804 -0.536,-1.44 6.186,-16.812 -12.709,-26.651 -12.035,-4.861 -25.157,-0.688 -34.757,7.112 -17.502,15.214 -20.871,41.665 -16.476,62.627 2.557,10.519 6.43,20.135 11.758,28.725 C -31.602,-19.706 -17.913,-6.837 0,0 m 24.53,-82.454 c -0.583,-0.566 -24.668,-5.803 -39.366,9.876 19.582,9.064 37.069,-3.598 39.366,-9.876 m -71.567,53.224 c -25.387,-5.865 -33.487,-35.83 -37.928,-52.466 -0.32,-1.05 -0.658,-2.091 -0.995,-3.117 l 0,-11.651 c 2.557,10.473 8.544,33.51 12.786,37.781 -7.609,-19.913 -8.04,-40.354 -12.786,-60.391 l 0,-8.29 c 9.585,31.061 11.53,82.638 27.179,86.389 -0.567,-0.826 -13.383,-60.917 7.915,-71.643 23.918,-44.924 66.088,-23.688 71.934,-14.822 0.707,0.612 20.351,20.027 8.668,42.337 0,0 16.337,5.053 22.875,19.231 2.588,6.339 3.861,13.353 3.828,20.189 l -4.701,4.708 c 2.527,-16.697 -6.322,-36.243 -24.008,-40.177 -5.893,14.454 -31.925,19.874 -45.276,12.066 -16.017,22.814 -2.207,62.471 26.993,70.402 L 1.808,8.958 C -20.731,4.471 -45.124,-7.609 -47.037,-29.23" />
      </g>
      <g
         style="fill:#ffffff"
         transform="matrix(0.3079718,0,0,-0.3079718,276.9341,902.19563)"
         id="g4574">
        <path
           inkscape:connector-curvature="0"
           id="path4576"
           style="fill:#ffffff;fill-opacity:1;fill-rule:evenodd;stroke:none"
           d="m 0,0 c 12.603,29.766 36.795,60.106 83.189,61.676 l -5.298,5.298 C 74.752,66.835 71.506,66.561 68.184,66.132 53.071,63.284 23.121,50.237 0,31.221 L 0,0 Z" />
      </g>
      <g
         style="fill:#ffffff"
         transform="matrix(0.3079718,0,0,-0.3079718,319.82699,884.97447)"
         id="g4578">
        <path
           inkscape:connector-curvature="0"
           id="path4580"
           style="fill:#ffffff;fill-opacity:1;fill-rule:evenodd;stroke:none"
           d="m 0,0 c 19.6,-5.756 13.857,-29.644 3.124,-34.297 -12.801,-5.796 -23.963,9.462 -18.037,17.806 1.195,-9.906 11.529,-17.348 19.677,-10.886 9.032,8.736 3.474,21.98 -4.365,24.545 -15.097,7.817 -26.275,-9.019 -26.382,-21.521 l -5.099,5.106 c 0.643,3.476 1.793,7.205 3.567,11.216 C -23.165,4.211 -3.521,10.374 0,0" />
      </g>
      <g
         style="fill:#ffffff"
         transform="matrix(0.3079718,0,0,-0.3079718,306.72224,884.05462)"
         id="g4582">
        <path
           inkscape:connector-curvature="0"
           id="path4584"
           style="fill:#ffffff;fill-opacity:1;fill-rule:evenodd;stroke:none"
           d="m 0,0 c 0.92,1.225 1.378,2.863 2.314,4.088 8.558,14.424 24.392,24.873 41.677,24.345 8.88,-0.045 18.16,-3.514 25.832,-8.413 0.015,0.528 14.055,23.105 37.284,15.12 18.988,-12.472 6.921,-29.43 6.997,-29.352 0,0 -6.477,40.476 -40.33,11.33 18.803,-16.882 12.433,-40.078 11.897,-42.965 0.964,-1.945 3.722,-1.898 5.634,-2.833 8.866,-2.817 18.572,-1.591 26.244,3.3 -5.45,1.738 -11.697,3.812 -11.82,14.462 1.455,0.528 16.828,-6.186 26.658,12.709 4.868,12.035 0.69,25.142 -7.105,34.75 C 110.063,54.05 83.618,57.419 62.657,53.024 52.138,50.468 42.522,46.586 33.916,41.265 19.707,31.603 6.831,17.915 0,0 m 82.456,-24.529 c 0.566,0.573 5.786,24.666 -9.876,39.35 -9.065,-19.568 3.582,-37.054 9.876,-39.35 M 29.217,47.038 c 5.879,25.386 35.843,33.479 52.471,37.926 1.057,0.323 2.084,0.644 3.125,0.996 l 11.653,0 C 85.992,83.403 62.949,77.416 58.675,73.167 c 19.922,7.618 40.362,8.046 60.39,12.793 l 8.299,0 C 96.297,76.375 44.712,74.422 40.975,58.773 c 0.827,0.576 60.91,13.392 71.644,-7.908 44.925,-23.917 23.688,-66.085 14.807,-71.935 -0.597,-0.72 -20.013,-20.349 -42.322,-8.666 0,0 -5.053,-16.346 -19.232,-22.876 -6.339,-2.595 -13.351,-3.858 -20.196,-3.836 l -4.701,4.709 c 16.691,-2.527 36.244,6.324 40.178,23.994 C 66.699,-21.85 61.279,4.195 69.089,17.539 46.273,33.555 6.601,19.752 -1.316,-9.448 l -7.64,7.641 c 4.486,22.532 16.567,46.93 38.173,48.845" />
      </g>
      <g
         style="fill:#ffffff"
         transform="matrix(0.3079718,0,0,-0.3079718,321.5488,857.58136)"
         id="g4586">
        <path
           inkscape:connector-curvature="0"
           id="path4588"
           style="fill:#ffffff;fill-opacity:1;fill-rule:evenodd;stroke:none"
           d="m 0,0 c -29.769,-12.602 -60.115,-36.801 -61.677,-83.189 l -5.299,5.298 c 0.138,3.139 0.414,6.378 0.844,9.708 2.831,15.105 15.878,45.054 34.895,68.183 L 0,0 Z" />
      </g>
      <g
         style="fill:#ffffff"
         transform="matrix(0.3079718,0,0,-0.3079718,300.56884,857.58136)"
         id="g4590">
        <path
           inkscape:connector-curvature="0"
           id="path4592"
           style="fill:#ffffff;fill-opacity:1;fill-rule:evenodd;stroke:none"
           d="m 0,0 -2.282,0 c 0.367,-1.478 0.643,-2.801 0.843,-3.177 C -1.027,-3.935 -0.704,-0.996 0,0" />
      </g>
      <g
         style="fill:#ffffff"
         transform="matrix(0.3079718,0,0,-0.3079718,292.31193,857.66152)"
         id="g4594">
        <path
           inkscape:connector-curvature="0"
           id="path4596"
           style="fill:#ffffff;fill-opacity:1;fill-rule:evenodd;stroke:none"
           d="m 0,0 c 0.061,0.084 0.091,0.168 0.091,0.26 l -2.404,0 C -1.394,-0.184 -0.444,-0.583 0,0" />
      </g>
      <g
         style="fill:#ffffff"
         transform="matrix(0.3079718,0,0,-0.3079718,288.49687,869.14626)"
         id="g4598">
        <path
           inkscape:connector-curvature="0"
           id="path4600"
           style="fill:#ffffff;fill-opacity:1;fill-rule:evenodd;stroke:none"
           d="M 0,0 C -0.645,2.503 1.408,5.474 0.856,5.887 0.167,6.392 -1.056,4.264 -1.76,5.481 c -0.706,1.218 2.8,3.974 2.403,4.877 -0.382,0.904 -3.047,-2.756 -3.599,-1.386 -0.534,1.371 3.062,5.957 2.664,7.174 -0.382,1.21 -2.893,-3.629 -3.307,-2.626 -0.429,1.003 2.526,5.046 2.266,5.888 -0.275,0.842 -2.678,-3.43 -3.369,-1.7 -0.703,1.73 1.99,3.429 1.914,4.945 -0.075,1.524 -3.69,0.95 -3.643,2.412 0.047,1.455 5.527,0.054 5.941,1.325 0.413,1.271 -3.553,1.806 -3.401,2.664 0.155,0.849 5.36,0.291 5.743,1.026 0.382,0.743 -1.531,0.459 -1.302,1.347 0.215,0.904 5.099,0.804 5.421,1.424 0.305,0.612 -2.542,1.195 -1.776,2.679 0.765,1.479 5.159,-1.454 6.049,-0.657 0.765,0.696 -1.962,1.661 -2.39,2.679 l -7.871,0 C -0.123,37.046 -0.185,36.587 -0.138,36.189 0.106,33.8 -4.212,32.085 -5.421,31.075 -7.441,29.406 -11.008,22.523 -8.865,17.11 -7.289,13.106 -6.998,9.133 -7.044,7.043 L 0,0 Z" />
      </g>
      <g
         style="fill:#ffffff"
         transform="matrix(0.3079718,0,0,-0.3079718,291.08999,871.12236)"
         id="g4602">
        <path
           inkscape:connector-curvature="0"
           id="path4604"
           style="fill:#ffffff;fill-opacity:1;fill-rule:evenodd;stroke:none"
           d="m 0,0 c 0.966,0.207 3.813,-6.331 7.933,-6.943 4.212,-0.628 8.636,1.699 10.733,4.133 1.654,1.9 7.396,4.188 8.268,7.871 0.444,1.876 5.313,3.798 7.642,7.12 2.326,3.331 1.898,4.945 1.822,6.247 -0.077,1.531 3.459,8.23 3.139,11.117 -0.308,2.893 1.76,7.272 -0.308,11.759 -0.49,1.088 -1.009,1.945 -1.546,2.664 l -6.017,0 c 0.458,-1.133 -1.638,-4.853 -0.919,-5.925 0.796,-1.179 2.557,3.919 3.078,3.261 0.521,-0.658 -2.48,-5.436 -1.669,-7.028 0.827,-1.592 2.772,5.527 3.675,3.966 0.917,-1.562 -3.415,-6.354 -3.078,-7.381 0.323,-1.033 3.751,3.063 4.364,2.129 0.612,-0.942 -4.333,-3.737 -3.659,-4.862 0.672,-1.125 3.89,2.557 4.455,1.401 0.582,-1.149 -4.502,-3.613 -4.226,-4.141 0.277,-0.528 2.389,-0.055 2.511,-1.049 0.108,-0.996 -4.839,-1.661 -4.807,-2.68 0.014,-1.027 2.756,-0.567 2.649,-1.523 -0.108,-0.957 -4.365,-1.202 -4.211,-2.595 0.138,-1.394 4.38,0.489 4.517,-0.598 0.137,-1.095 -3.185,-1.287 -4.272,-2.105 -1.089,-0.819 -0.72,-3.806 -1.745,-3.828 -1.027,-0.023 -1.103,2.197 -2.496,1.018 C 24.423,10.849 26.49,7.71 25.311,6.914 24.117,6.118 23.214,9.226 21.729,8.751 20.135,8.238 20.795,2.06 19.708,2.84 18.635,3.622 19.248,5.812 18.299,4.969 17.364,4.127 18.207,1.432 17.104,0.667 c -0.642,-0.46 -1.408,0.52 -1.99,1.27 -0.413,0.529 -0.736,0.169 -0.521,-0.26 0.46,-0.995 1.226,-2.326 0.43,-2.511 -1.15,-0.268 -2.604,4.524 -3.568,3.69 -0.966,-0.827 1.883,-3.307 0.092,-3.782 C 9.739,-1.4 8.881,2.55 7.535,1.601 6.187,0.651 8.959,-1.553 7.503,-1.814 6.034,-2.074 4.609,4.893 3.185,4.525 1.764,4.173 4.273,0.023 2.038,0.759 -0.228,1.494 0.291,7.105 -1.974,6.792 -4.241,6.47 0.43,2.642 -1.898,2.52 -4.225,2.381 -4.011,7.985 -5.742,8.567 -7.012,8.981 -6.153,5.429 -6.552,4.548 l 5.13,-5.136 C -0.779,-0.313 -0.289,-0.061 0,0" />
      </g>
      <g
         style="fill:#ffffff"
         transform="matrix(0.3079718,0,0,-0.3079718,299.33785,857.58136)"
         id="g4606">
        <path
           inkscape:connector-curvature="0"
           id="path4608"
           style="fill:#ffffff;fill-opacity:1;fill-rule:evenodd;stroke:none"
           d="m 0,0 -0.979,0 c 0.214,-0.237 0.443,-0.383 0.688,-0.383 C -0.075,-0.383 0,-0.229 0,0" />
      </g>
      <g
         style="fill:#ffffff"
         transform="matrix(0.3079718,0,0,-0.3079718,296.60731,864.57223)"
         id="g4610">
        <path
           inkscape:connector-curvature="0"
           id="path4612"
           style="fill:#ffffff;fill-opacity:1;fill-rule:evenodd;stroke:none"
           d="m 0,0 c -3.552,0.812 -3.336,-2.871 -3.521,-4.433 -0.168,-1.577 -4.792,-4.364 -5.42,-1.776 -0.627,2.572 -3.216,0.674 -3.797,1.822 -0.568,1.164 -3.798,2.618 -2.496,5.221 3.322,6.639 -0.536,7.979 1.698,8.79 1.595,0.581 3.476,5.581 4.32,4.608 2.097,-2.435 5.695,0.291 5.986,-0.857 C -2.646,11.07 0.076,11.599 0.506,10.68 0.996,9.624 0.245,6.96 -0.198,6.094 -0.641,5.229 3.569,-0.818 0,0 m 7.963,11.714 c -0.399,1.523 -4.961,0.451 -5.252,1.386 -0.306,0.933 3.339,2.004 2.726,2.946 -0.613,0.942 -3.888,0.123 -4.563,-0.113 -0.935,-0.323 -0.981,0.734 -0.398,1.561 0.596,0.826 0.751,1.99 0.811,2.434 0.078,0.429 -0.521,1.655 -2.036,-0.689 -1.516,-2.342 -3.461,-1.76 -4.058,-1.837 -0.582,-0.085 -1.103,0.444 -0.751,1.041 0.354,0.597 0.354,1.332 0.216,2.114 -0.154,0.772 -0.674,1.01 -0.75,0.229 -0.078,-0.774 -1.456,-2.221 -1.947,-2.588 -0.504,-0.368 -1.407,-0.137 -1.482,0.452 -0.094,0.589 -0.323,1.883 -0.708,2.273 -0.381,0.384 -1.039,-0.007 -0.902,-0.826 0.153,-0.826 0.322,-3.475 -0.183,-3.874 -1.823,-1.409 -1.5,3.016 -3.124,0.797 -0.444,-0.598 -0.123,-2.68 -0.781,-3.507 -0.658,-0.827 -1.885,1.852 -2.42,1.485 -0.536,-0.367 0.842,-3.66 0,-4.242 -0.841,-0.581 -3.98,1.7 -4.118,0.697 -0.122,-1.01 3.261,-2.671 3.124,-3.85 -0.138,-1.18 -5.804,-2.183 -5.544,-3.339 0.278,-1.147 4.733,-0.061 4.962,-0.811 0.245,-0.742 -3.92,-4.165 -3.675,-4.915 0.228,-0.744 2.864,1.295 3.108,0.551 0.229,-0.75 -3.215,-3.17 -2.573,-4.203 0.645,-1.034 3.813,2.411 4.609,1.217 0.797,-1.187 -3.092,-3.95 -2.112,-5.39 0.979,-1.439 3.66,3.438 4.485,2.78 0.827,-0.667 -1.698,-3.116 -0.029,-4.127 1.653,-1.011 1.393,3.821 3.446,1.286 2.05,-2.542 -0.094,-6.423 1.544,-7.349 0.767,-0.429 1.302,4.165 2.113,4.21 0.813,0.061 0.949,-3.138 1.762,-2.771 0.81,0.367 -1.318,5.819 -0.597,6.147 0.719,0.338 3.873,-3.207 5.114,-2.288 1.256,0.91 -2.557,2.771 -1.96,3.475 0.597,0.719 6.307,-0.72 7.657,0.535 1.345,1.257 -4.748,0.721 -4.272,1.807 0.488,1.073 5.894,1.746 6.139,2.558 0.261,0.796 -3.017,1.179 -2.956,1.654 0.061,0.474 4.197,0.582 4.671,1.974 0.474,1.395 -4.686,1.64 -3.521,3.461 1.178,1.815 3.03,-0.52 3.704,1.547 0.675,2.075 -5.558,2.305 -4.18,4.088 1.394,1.792 5.083,0.49 4.701,2.014" />
      </g>
      <g
         style="fill:#ffffff"
         transform="matrix(0.3079718,0,0,-0.3079718,294.05151,861.59432)"
         id="g4614">
        <path
           inkscape:connector-curvature="0"
           id="path4616"
           style="fill:#ffffff;fill-opacity:1;fill-rule:evenodd;stroke:none"
           d="m 0,0 c -1.284,-1.362 -1.302,-4.073 -0.934,-4.501 0.567,-0.66 -2.984,-4.142 -0.412,-5.689 2.557,-1.546 4.593,1.064 4.593,1.707 0.015,0.628 0.075,2.297 0.918,2.572 0.843,0.269 1.103,3.86 0.185,4.624 C 3.431,-0.521 1.287,1.363 0,0" />
      </g>
      <g
         style="fill:#ffffff"
         transform="matrix(0.3079718,0,0,-0.3079718,276.9341,833.9465)"
         id="g4618">
        <path
           inkscape:connector-curvature="0"
           id="path4620"
           style="fill:#ffffff;fill-opacity:1;fill-rule:evenodd;stroke:none"
           d="m 0,0 0,-2.282 c 1.485,0.368 2.803,0.651 3.171,0.843 C 3.935,-1.026 0.995,-0.713 0,0" />
      </g>
      <g
         style="fill:#ffffff"
         transform="matrix(0.3079718,0,0,-0.3079718,277.01411,842.20384)"
         id="g4622">
        <path
           inkscape:connector-curvature="0"
           id="path4624"
           style="fill:#ffffff;fill-opacity:1;fill-rule:evenodd;stroke:none"
           d="m 0,0 c -0.076,0.062 -0.169,0.084 -0.26,0.093 l 0,-2.405 C 0.185,-1.394 0.581,-0.452 0,0" />
      </g>
      <g
         style="fill:#ffffff"
         transform="matrix(0.3079718,0,0,-0.3079718,288.49687,846.01859)"
         id="g4626">
        <path
           inkscape:connector-curvature="0"
           id="path4628"
           style="fill:#ffffff;fill-opacity:1;fill-rule:evenodd;stroke:none"
           d="m 0,0 c -2.496,-0.644 -5.467,1.417 -5.88,0.857 -0.504,-0.681 1.624,-1.914 0.413,-2.618 -1.224,-0.704 -3.982,2.802 -4.884,2.411 -0.904,-0.39 2.755,-3.054 1.378,-3.598 -1.363,-0.543 -5.957,3.055 -7.165,2.665 -1.211,-0.391 3.613,-2.894 2.617,-3.323 -0.996,-0.421 -5.054,2.534 -5.88,2.274 -0.842,-0.276 3.429,-2.68 1.699,-3.369 -1.729,-0.704 -3.428,1.983 -4.945,1.906 -1.531,-0.076 -0.949,-3.682 -2.418,-3.636 -1.456,0.046 -0.047,5.528 -1.317,5.941 -1.272,0.413 -1.807,-3.553 -2.664,-3.4 -0.842,0.153 -0.293,5.36 -1.027,5.743 -0.735,0.382 -0.46,-1.531 -1.348,-1.31 -0.903,0.223 -0.81,5.107 -1.424,5.429 -0.612,0.313 -1.194,-2.542 -2.679,-1.776 -1.485,0.764 1.456,5.159 0.659,6.04 -0.703,0.766 -1.669,-1.961 -2.68,-2.382 l 0,-7.87 c 0.506,-0.115 0.964,-0.168 1.363,-0.122 2.388,0.245 4.103,-4.072 5.115,-5.29 1.667,-2.014 8.543,-5.581 13.963,-3.438 3.997,1.577 7.978,1.868 10.06,1.823 L 0,0 Z" />
      </g>
      <g
         style="fill:#ffffff"
         transform="matrix(0.3079718,0,0,-0.3079718,290.47254,843.42519)"
         id="g4630">
        <path
           inkscape:connector-curvature="0"
           id="path4632"
           style="fill:#ffffff;fill-opacity:1;fill-rule:evenodd;stroke:none"
           d="M 0,0 C -0.199,0.965 6.325,3.813 6.952,7.932 7.58,12.15 5.251,16.56 2.816,18.665 c -1.897,1.654 -4.195,7.396 -7.867,8.269 -1.886,0.444 -3.799,5.313 -7.121,7.64 -3.339,2.328 -4.947,1.892 -6.264,1.823 -1.515,-0.077 -8.222,3.46 -11.115,3.138 -2.879,-0.306 -7.259,1.761 -11.744,-0.306 -1.089,-0.489 -1.946,-1.01 -2.665,-1.539 l 0,-6.017 c 1.133,0.452 4.855,-1.646 5.926,-0.926 1.179,0.795 -3.92,2.549 -3.261,3.077 0.657,0.521 5.436,-2.481 7.027,-1.654 1.594,0.812 -5.526,2.757 -3.964,3.667 1.561,0.912 6.352,-3.421 7.38,-3.085 1.025,0.331 -3.063,3.752 -2.128,4.365 0.934,0.612 3.734,-4.334 4.851,-3.66 1.133,0.673 -2.557,3.889 -1.392,4.462 1.148,0.575 3.614,-4.508 4.134,-4.232 0.536,0.275 0.062,2.388 1.057,2.51 0.996,0.108 1.654,-4.838 2.68,-4.815 1.025,0.023 0.566,2.764 1.514,2.657 0.966,-0.107 1.196,-4.356 2.605,-4.212 1.392,0.139 -0.491,4.372 0.596,4.518 1.087,0.146 1.287,-3.185 2.098,-4.273 0.826,-1.086 3.813,-0.719 3.828,-1.745 0.03,-1.025 -2.189,-1.102 -1.011,-2.503 1.18,-1.401 4.319,0.666 5.115,-0.52 0.795,-1.187 -2.312,-2.091 -1.838,-3.576 0.504,-1.593 6.692,-0.935 5.911,-2.02 -0.798,-1.073 -2.97,-0.46 -2.129,-1.41 0.842,-0.934 3.538,-0.091 4.304,-1.186 0.443,-0.644 -0.521,-1.417 -1.273,-1.999 -0.52,-0.414 -0.168,-0.728 0.262,-0.521 0.996,0.46 2.327,1.225 2.511,0.429 0.26,-1.155 -4.533,-2.603 -3.707,-3.568 0.828,-0.964 3.307,1.891 3.798,0.085 C 1.41,9.739 -2.541,8.874 -1.592,7.534 -0.643,6.186 1.562,8.958 1.823,7.496 2.083,6.033 -4.885,4.617 -4.532,3.185 -4.165,1.754 -0.016,4.28 -0.75,2.029 -1.486,-0.229 -7.104,0.291 -6.783,-1.975 c 0.322,-2.266 4.149,2.404 4.271,0.069 0.138,-2.327 -5.465,-2.105 -6.048,-3.836 -0.413,-1.27 3.14,-0.413 4.013,-0.811 l 5.13,5.137 C 0.322,-0.773 0.077,-0.29 0,0" />
      </g>
      <g
         style="fill:#ffffff"
         transform="matrix(0.3079718,0,0,-0.3079718,276.9341,835.17749)"
         id="g4634">
        <path
           inkscape:connector-curvature="0"
           id="path4636"
           style="fill:#ffffff;fill-opacity:1;fill-rule:evenodd;stroke:none"
           d="m 0,0 0,-0.98 c 0.23,0.214 0.382,0.444 0.382,0.689 C 0.382,-0.077 0.23,0 0,0" />
      </g>
      <g
         style="fill:#ffffff"
         transform="matrix(0.3079718,0,0,-0.3079718,283.92241,837.90787)"
         id="g4638">
        <path
           inkscape:connector-curvature="0"
           id="path4640"
           style="fill:#ffffff;fill-opacity:1;fill-rule:evenodd;stroke:none"
           d="m 0,0 c -0.811,-3.552 2.879,-3.338 4.44,-3.514 1.563,-0.176 4.365,-4.8 1.779,-5.428 -2.574,-0.628 -0.675,-3.216 -1.84,-3.789 -1.148,-0.575 -2.604,-3.806 -5.205,-2.504 -6.647,3.322 -7.978,-0.536 -8.804,1.699 -0.567,1.593 -5.573,3.476 -4.595,4.318 2.435,2.098 -0.29,5.697 0.859,5.988 2.296,0.581 1.777,3.314 2.694,3.743 1.057,0.482 3.722,-0.268 4.577,-0.712 C -5.222,-0.643 0.812,3.569 0,0 m -11.712,7.962 c -1.517,-0.39 -0.444,-4.961 -1.378,-5.259 -0.933,-0.299 -2.008,3.345 -2.957,2.733 -0.934,-0.612 -0.122,-3.889 0.122,-4.563 0.322,-0.935 -0.733,-0.98 -1.56,-0.398 -0.827,0.597 -2.006,0.75 -2.435,0.819 -0.431,0.069 -1.653,-0.528 0.688,-2.044 2.344,-1.516 1.761,-3.461 1.839,-4.057 0.077,-0.589 -0.444,-1.103 -1.042,-0.751 -0.596,0.352 -1.331,0.352 -2.114,0.214 -0.764,-0.153 -1.01,-0.673 -0.228,-0.75 0.765,-0.076 2.219,-1.454 2.588,-1.945 0.367,-0.505 0.136,-1.4 -0.46,-1.492 -0.583,-0.084 -1.882,-0.315 -2.267,-0.697 -0.383,-0.383 0,-1.05 0.828,-0.904 0.826,0.154 3.476,0.321 3.874,-0.191 1.407,-1.814 -3.018,-1.493 -0.797,-3.123 0.597,-0.437 2.68,-0.116 3.506,-0.774 0.827,-0.666 -1.852,-1.883 -1.485,-2.419 0.367,-0.535 3.66,0.842 4.242,0 0.58,-0.842 -1.7,-3.98 -0.704,-4.111 1.01,-0.131 2.68,3.253 3.857,3.116 1.18,-0.137 2.175,-5.803 3.34,-5.543 1.147,0.275 0.061,4.731 0.811,4.969 0.75,0.236 4.166,-3.928 4.899,-3.683 0.751,0.229 -1.286,2.863 -0.535,3.1 0.751,0.238 3.17,-3.208 4.195,-2.564 1.04,0.635 -2.405,3.813 -1.211,4.608 1.179,0.789 3.951,-3.093 5.392,-2.112 1.439,0.98 -3.446,3.659 -2.788,4.485 0.66,0.835 3.124,-1.698 4.134,-0.037 1.01,1.669 -3.827,1.401 -1.285,3.453 2.54,2.051 6.414,-0.092 7.348,1.546 0.43,0.766 -4.164,1.302 -4.211,2.114 -0.06,0.811 3.141,0.948 2.772,1.76 -0.368,0.811 -5.818,-1.317 -6.154,-0.597 -0.338,0.719 3.213,3.874 2.295,5.122 C 10.49,-0.765 8.636,-4.571 7.932,-3.974 7.212,-3.384 8.65,2.328 7.396,3.675 6.14,5.023 6.677,-1.064 5.591,-0.589 4.503,-0.114 3.846,5.298 3.031,5.551 2.236,5.803 1.854,2.526 1.379,2.588 0.902,2.649 0.798,6.776 -0.598,7.258 -1.99,7.733 -2.234,2.573 -4.057,3.736 c -1.822,1.179 0.522,3.032 -1.547,3.698 -2.083,0.674 -2.313,-5.55 -4.087,-4.165 -1.793,1.386 -0.492,5.076 -2.021,4.693" />
      </g>
      <g
         style="fill:#ffffff"
         transform="matrix(0.3079718,0,0,-0.3079718,280.94706,840.46352)"
         id="g4642">
        <path
           inkscape:connector-curvature="0"
           id="path4644"
           style="fill:#ffffff;fill-opacity:1;fill-rule:evenodd;stroke:none"
           d="m 0,0 c 1.362,-1.286 4.073,-1.31 4.502,-0.934 0.658,0.566 4.135,-2.979 5.68,-0.414 1.547,2.557 -1.055,4.594 -1.7,4.594 C 7.855,3.261 6.185,3.322 5.91,4.164 5.636,5.006 2.052,5.259 1.286,4.348 0.521,3.43 -1.362,1.286 0,0" />
      </g>
      <g
         style="fill:#ffffff"
         transform="matrix(0.3079718,0,0,-0.3079718,253.29923,857.58136)"
         id="g4646">
        <path
           inkscape:connector-curvature="0"
           id="path4648"
           style="fill:#ffffff;fill-opacity:1;fill-rule:evenodd;stroke:none"
           d="M 0,0 2.283,0 C 1.916,1.478 1.624,2.802 1.44,3.17 1.028,3.935 0.704,0.996 0,0" />
      </g>
      <g
         style="fill:#ffffff"
         transform="matrix(0.3079718,0,0,-0.3079718,261.55627,857.50107)"
         id="g4650">
        <path
           inkscape:connector-curvature="0"
           id="path4652"
           style="fill:#ffffff;fill-opacity:1;fill-rule:evenodd;stroke:none"
           d="m 0,0 c -0.061,-0.084 -0.09,-0.169 -0.09,-0.261 l 2.402,0 C 1.394,0.183 0.445,0.582 0,0" />
      </g>
      <g
         style="fill:#ffffff"
         transform="matrix(0.3079718,0,0,-0.3079718,265.37133,846.01859)"
         id="g4654">
        <path
           inkscape:connector-curvature="0"
           id="path4656"
           style="fill:#ffffff;fill-opacity:1;fill-rule:evenodd;stroke:none"
           d="m 0,0 c 0.645,-2.496 -1.408,-5.466 -0.856,-5.88 0.671,-0.505 1.912,1.623 2.616,0.406 0.707,-1.217 -2.8,-3.974 -2.417,-4.877 0.396,-0.904 3.061,2.756 3.596,1.379 0.552,-1.363 -3.045,-5.957 -2.662,-7.167 0.397,-1.209 2.908,3.621 3.322,2.618 0.429,-0.995 -2.526,-5.045 -2.266,-5.887 0.275,-0.842 2.678,3.438 3.368,1.707 0.704,-1.73 -1.989,-3.43 -1.914,-4.945 0.076,-1.531 3.691,-0.949 3.644,-2.412 -0.047,-1.462 -5.527,-0.054 -5.941,-1.325 -0.413,-1.27 3.553,-1.806 3.399,-2.664 -0.153,-0.849 -5.358,-0.291 -5.741,-1.026 -0.383,-0.743 1.531,-0.459 1.302,-1.355 -0.215,-0.896 -5.099,-0.803 -5.421,-1.416 -0.321,-0.613 2.526,-1.195 1.776,-2.679 -0.765,-1.477 -5.159,1.453 -6.05,0.65 -0.764,-0.697 1.962,-1.661 2.391,-2.672 l 7.869,0 c 0.108,0.498 0.169,0.965 0.123,1.363 -0.244,2.389 4.074,4.103 5.282,5.114 2.02,1.669 5.59,8.545 3.445,13.964 -1.576,3.997 -1.868,7.978 -1.821,10.061 L 0,0 Z" />
      </g>
      <g
         style="fill:#ffffff"
         transform="matrix(0.3079718,0,0,-0.3079718,262.77824,844.04039)"
         id="g4658">
        <path
           inkscape:connector-curvature="0"
           id="path4660"
           style="fill:#ffffff;fill-opacity:1;fill-rule:evenodd;stroke:none"
           d="m 0,0 c -0.966,-0.207 -3.813,6.323 -7.933,6.943 -4.226,0.628 -8.637,-1.699 -10.734,-4.133 -1.654,-1.9 -7.395,-4.188 -8.267,-7.871 -0.444,-1.876 -5.313,-3.796 -7.642,-7.127 -2.327,-3.33 -1.898,-4.938 -1.822,-6.248 0.077,-1.522 -3.46,-8.23 -3.139,-11.117 0.308,-2.885 -1.76,-7.264 0.308,-11.751 0.489,-1.087 1.01,-1.945 1.546,-2.664 l 6.016,0 c -0.458,1.125 1.639,4.853 0.92,5.918 -0.796,1.186 -2.557,-3.912 -3.078,-3.254 -0.521,0.651 2.48,5.436 1.654,7.028 -0.812,1.592 -2.757,-5.528 -3.675,-3.966 -0.903,1.554 3.43,6.355 3.093,7.381 -0.323,1.026 -3.751,-3.062 -4.364,-2.129 -0.612,0.934 4.332,3.736 3.659,4.854 -0.672,1.133 -3.89,-2.556 -4.47,-1.393 -0.567,1.148 4.516,3.613 4.241,4.134 -0.276,0.536 -2.389,0.062 -2.512,1.056 -0.106,0.996 4.84,1.654 4.808,2.68 -0.015,1.026 -2.756,0.559 -2.649,1.516 0.108,0.964 4.349,1.202 4.21,2.603 -0.137,1.394 -4.379,-0.49 -4.516,0.597 -0.152,1.088 3.185,1.286 4.271,2.098 1.089,0.827 0.721,3.812 1.747,3.828 1.026,0.022 1.102,-2.189 2.495,-1.011 1.41,1.179 -0.657,4.318 0.522,5.114 1.194,0.796 2.097,-2.312 3.582,-1.837 1.592,0.505 0.934,6.691 2.021,5.91 1.071,-0.788 0.46,-2.971 1.409,-2.128 0.934,0.842 0.092,3.536 1.179,4.303 0.643,0.451 1.423,-0.521 2.006,-1.271 0.413,-0.529 0.719,-0.168 0.521,0.26 -0.46,0.995 -1.226,2.327 -0.43,2.511 1.15,0.268 2.605,-4.532 3.568,-3.698 0.965,0.827 -1.898,3.308 -0.092,3.79 1.808,0.475 2.666,-3.476 4.012,-2.526 1.348,0.949 -1.424,3.146 0.032,3.414 1.468,0.26 2.894,-6.706 4.318,-6.346 1.439,0.36 -1.104,4.509 1.147,3.774 2.266,-0.736 1.746,-6.355 4.012,-6.033 2.265,0.321 -2.404,4.142 -0.076,4.272 2.327,0.138 2.113,-5.466 3.841,-6.048 1.273,-0.413 0.414,3.131 0.813,4.011 L 1.407,0.582 C 0.765,0.313 0.289,0.061 0,0" />
      </g>
      <g
         style="fill:#ffffff"
         transform="matrix(0.3079718,0,0,-0.3079718,254.5302,857.58136)"
         id="g4662">
        <path
           inkscape:connector-curvature="0"
           id="path4664"
           style="fill:#ffffff;fill-opacity:1;fill-rule:evenodd;stroke:none"
           d="M 0,0 0.981,0 C 0.766,0.229 0.537,0.383 0.292,0.383 0.076,0.383 0,0.229 0,0" />
      </g>
      <g
         style="fill:#ffffff"
         transform="matrix(0.3079718,0,0,-0.3079718,257.26074,850.59289)"
         id="g4666">
        <path
           inkscape:connector-curvature="0"
           id="path4668"
           style="fill:#ffffff;fill-opacity:1;fill-rule:evenodd;stroke:none"
           d="m 0,0 c 3.552,-0.803 3.337,2.878 3.506,4.44 0.183,1.57 4.807,4.364 5.436,1.777 0.627,-2.58 3.216,-0.674 3.78,-1.83 0.584,-1.156 3.815,-2.611 2.513,-5.213 -3.322,-6.646 0.535,-7.977 -1.698,-8.797 -1.595,-0.582 -3.477,-5.574 -4.321,-4.602 -2.096,2.435 -5.695,-0.291 -5.986,0.858 -0.583,2.297 -3.306,1.776 -3.736,2.695 -0.49,1.049 0.261,3.721 0.704,4.578 C 0.642,-5.222 -3.569,0.812 0,0 m -7.962,-11.713 c 0.398,-1.516 4.961,-0.444 5.252,-1.379 0.305,-0.933 -3.339,-2.012 -2.726,-2.954 0.612,-0.934 3.888,-0.122 4.562,0.122 0.935,0.322 0.982,-0.735 0.399,-1.569 -0.597,-0.827 -0.751,-1.99 -0.827,-2.427 -0.061,-0.43 0.536,-1.654 2.052,0.689 1.515,2.342 3.46,1.752 4.058,1.837 0.581,0.077 1.103,-0.452 0.75,-1.042 -0.353,-0.596 -0.353,-1.331 -0.215,-2.112 0.154,-0.774 0.673,-1.01 0.75,-0.238 0.077,0.774 1.455,2.221 1.947,2.588 0.504,0.367 1.392,0.146 1.482,-0.452 0.093,-0.581 0.322,-1.876 0.707,-2.266 0.382,-0.382 1.057,0 0.902,0.827 -0.153,0.82 -0.322,3.477 0.184,3.874 1.822,1.409 1.5,-3.024 3.124,-0.796 0.443,0.597 0.123,2.671 0.78,3.506 0.659,0.828 1.885,-1.852 2.42,-1.484 0.536,0.366 -0.842,3.659 0,4.233 0.842,0.582 3.981,-1.692 4.104,-0.697 0.136,1.011 -3.247,2.681 -3.11,3.858 0.123,1.179 5.805,2.175 5.544,3.331 -0.277,1.156 -4.732,0.069 -4.977,0.819 -0.23,0.743 3.935,4.165 3.69,4.9 -0.228,0.75 -2.863,-1.286 -3.107,-0.536 -0.245,0.751 3.215,3.169 2.573,4.196 -0.646,1.033 -3.814,-2.404 -4.609,-1.21 -0.798,1.179 3.091,3.95 2.112,5.39 -0.98,1.439 -3.66,-3.446 -4.485,-2.779 -0.827,0.658 1.698,3.116 0.029,4.127 C 13.75,11.653 14.009,6.822 11.958,9.356 9.907,11.89 12.05,15.779 10.413,16.698 9.645,17.135 9.094,12.541 8.299,12.495 7.487,12.434 7.349,15.634 6.538,15.267 5.727,14.898 7.855,9.448 7.134,9.111 6.416,8.781 3.261,12.327 2.006,11.407 0.764,10.489 4.562,8.637 3.981,7.924 3.383,7.212 -2.327,8.651 -3.676,7.396 -5.022,6.141 1.057,6.676 0.581,5.589 0.108,4.51 -5.299,3.836 -5.559,3.032 -5.803,2.229 -2.528,1.845 -2.587,1.371 -2.649,0.903 -6.784,0.797 -7.258,-0.597 c -0.475,-1.393 4.685,-1.638 3.52,-3.46 -1.178,-1.823 -3.029,0.52 -3.704,-1.554 -0.675,-2.076 5.559,-2.305 4.164,-4.081 -1.378,-1.791 -5.069,-0.49 -4.684,-2.021" />
      </g>
      <g
         style="fill:#ffffff"
         transform="matrix(0.3079718,0,0,-0.3079718,259.81656,853.56843)"
         id="g4670">
        <path
           inkscape:connector-curvature="0"
           id="path4672"
           style="fill:#ffffff;fill-opacity:1;fill-rule:evenodd;stroke:none"
           d="M 0,0 C 1.285,1.363 1.3,4.073 0.935,4.502 0.368,5.16 3.904,8.636 1.346,10.183 -1.211,11.729 -3.247,9.126 -3.247,8.483 -3.261,7.848 -3.325,6.186 -4.165,5.91 -5.007,5.635 -5.267,2.052 -4.35,1.286 -3.43,0.521 -1.287,-1.363 0,0" />
      </g>
      <g
         style="fill:#ffffff"
         transform="matrix(0.3079718,0,0,-0.3079718,276.9341,881.21579)"
         id="g4674">
        <path
           inkscape:connector-curvature="0"
           id="path4676"
           style="fill:#ffffff;fill-opacity:1;fill-rule:evenodd;stroke:none"
           d="M 0,0 0,2.281 C -1.485,1.907 -2.802,1.623 -3.171,1.423 -3.935,1.025 -0.995,0.704 0,0" />
      </g>
      <g
         style="fill:#ffffff"
         transform="matrix(0.3079718,0,0,-0.3079718,276.85412,872.95876)"
         id="g4678">
        <path
           inkscape:connector-curvature="0"
           id="path4680"
           style="fill:#ffffff;fill-opacity:1;fill-rule:evenodd;stroke:none"
           d="m 0,0 c 0.076,-0.062 0.169,-0.093 0.26,-0.093 l 0,2.397 C -0.184,1.393 -0.581,0.444 0,0" />
      </g>
      <g
         style="fill:#ffffff"
         transform="matrix(0.3079718,0,0,-0.3079718,265.37133,869.14626)"
         id="g4682">
        <path
           inkscape:connector-curvature="0"
           id="path4684"
           style="fill:#ffffff;fill-opacity:1;fill-rule:evenodd;stroke:none"
           d="m 0,0 c 2.496,0.65 5.467,-1.41 5.88,-0.851 0.504,0.674 -1.624,1.915 -0.413,2.619 1.224,0.696 3.982,-2.81 4.885,-2.419 0.902,0.399 -2.757,3.063 -1.379,3.606 1.363,0.544 5.942,-3.055 7.165,-2.672 1.211,0.398 -3.628,2.902 -2.617,3.322 0.995,0.43 5.037,-2.534 5.88,-2.266 0.842,0.276 -3.429,2.673 -1.699,3.369 1.729,0.705 3.427,-1.99 4.945,-1.914 1.531,0.078 0.949,3.69 2.418,3.636 1.456,-0.038 0.046,-5.519 1.317,-5.932 1.272,-0.422 1.807,3.544 2.664,3.391 0.842,-0.146 0.293,-5.351 1.025,-5.734 0.737,-0.384 0.462,1.531 1.35,1.301 0.903,-0.222 0.796,-5.099 1.424,-5.42 0.612,-0.314 1.194,2.526 2.679,1.777 1.47,-0.767 -1.456,-5.169 -0.659,-6.049 0.704,-0.765 1.669,1.96 2.68,2.381 l 0,7.877 C 37.039,0.13 36.581,0.191 36.182,0.145 33.794,-0.108 32.079,4.218 31.066,5.427 29.4,7.449 22.524,11.016 17.104,8.873 13.107,7.289 9.126,6.998 7.044,7.043 L 0,0 Z" />
      </g>
      <g
         style="fill:#ffffff"
         transform="matrix(0.3079718,0,0,-0.3079718,263.39597,871.73768)"
         id="g4686">
        <path
           inkscape:connector-curvature="0"
           id="path4688"
           style="fill:#ffffff;fill-opacity:1;fill-rule:evenodd;stroke:none"
           d="m 0,0 c 0.198,-0.963 -6.341,-3.813 -6.953,-7.931 -0.629,-4.226 1.701,-8.636 4.135,-10.734 1.898,-1.654 4.196,-7.396 7.868,-8.268 1.887,-0.444 3.799,-5.314 7.121,-7.64 3.34,-2.328 4.947,-1.891 6.247,-1.823 1.533,0.076 8.239,-3.46 11.116,-3.146 2.895,0.313 7.275,-1.754 11.76,0.313 1.089,0.491 1.946,1.012 2.665,1.539 l 0,6.018 c -1.133,-0.453 -4.855,1.647 -5.926,0.926 -1.179,-0.796 3.92,-2.556 3.261,-3.077 -0.657,-0.522 -5.436,2.481 -7.027,1.654 -1.594,-0.82 5.527,-2.757 3.964,-3.676 -1.561,-0.904 -6.353,3.423 -7.38,3.093 -1.025,-0.336 3.063,-3.751 2.128,-4.363 -0.934,-0.613 -3.734,4.332 -4.851,3.659 -1.133,-0.674 2.557,-3.889 1.392,-4.471 -1.148,-0.574 -3.614,4.517 -4.149,4.24 -0.521,-0.274 -0.047,-2.387 -1.042,-2.51 -0.996,-0.107 -1.654,4.831 -2.68,4.808 -1.025,-0.015 -0.566,-2.756 -1.514,-2.649 -0.966,0.1 -1.211,4.348 -2.605,4.211 -1.392,-0.137 0.491,-4.379 -0.595,-4.518 -1.088,-0.153 -1.288,3.186 -2.099,4.273 -0.827,1.08 -3.813,0.719 -3.828,1.746 -0.03,1.025 2.189,1.102 1.011,2.495 -1.18,1.409 -4.319,-0.667 -5.115,0.52 -0.797,1.195 2.312,2.091 1.838,3.584 -0.505,1.592 -6.692,0.934 -5.911,2.021 0.797,1.072 2.97,0.459 2.129,1.401 -0.842,0.942 -3.538,0.1 -4.304,1.187 -0.443,0.642 0.521,1.423 1.272,2.006 0.536,0.398 0.169,0.727 -0.261,0.521 -0.996,-0.46 -2.327,-1.226 -2.511,-0.43 -0.26,1.148 4.533,2.596 3.69,3.568 -0.826,0.965 -3.308,-1.891 -3.781,-0.091 -0.476,1.806 3.475,2.664 2.526,4.011 -0.949,1.347 -3.153,-1.424 -3.416,0.03 -0.259,1.47 6.709,2.887 6.342,4.318 C 4.163,-1.761 0.015,-4.287 0.749,-2.036 1.483,0.223 7.103,-0.291 6.782,1.976 6.46,4.242 2.633,-0.428 2.511,1.899 2.373,4.227 7.976,4.012 8.559,5.742 8.972,7.014 5.419,6.156 4.546,6.546 L -0.599,1.41 C -0.323,0.766 -0.078,0.292 0,0" />
      </g>
      <g
         style="fill:#ffffff"
         transform="matrix(0.3079718,0,0,-0.3079718,276.9341,879.98511)"
         id="g4690">
        <path
           inkscape:connector-curvature="0"
           id="path4692"
           style="fill:#ffffff;fill-opacity:1;fill-rule:evenodd;stroke:none"
           d="M 0,0 0,0.98 C -0.245,0.758 -0.382,0.536 -0.382,0.291 -0.382,0.077 -0.23,0 0,0" />
      </g>
      <g
         style="fill:#ffffff"
         transform="matrix(0.3079718,0,0,-0.3079718,269.94579,877.25728)"
         id="g4694">
        <path
           inkscape:connector-curvature="0"
           id="path4696"
           style="fill:#ffffff;fill-opacity:1;fill-rule:evenodd;stroke:none"
           d="m 0,0 c 0.811,3.561 -2.879,3.338 -4.44,3.514 -1.578,0.184 -4.365,4.808 -1.779,5.436 2.574,0.628 0.675,3.215 1.825,3.781 1.163,0.583 2.618,3.813 5.22,2.512 6.646,-3.33 7.978,0.537 8.789,-1.707 0.582,-1.585 5.573,-3.469 4.61,-4.318 C 11.789,7.121 14.515,3.53 13.367,3.238 11.07,2.657 11.589,-0.077 10.672,-0.505 9.615,-0.995 6.95,-0.237 6.077,0.208 5.222,0.651 -0.827,-3.56 0,0 m 11.712,-7.955 c 1.517,0.392 0.444,4.962 1.379,5.252 0.932,0.307 2.007,-3.337 2.956,-2.725 0.934,0.613 0.122,3.889 -0.122,4.563 -0.322,0.934 0.733,0.98 1.56,0.391 0.827,-0.59 1.992,-0.751 2.435,-0.819 0.43,-0.061 1.653,0.536 -0.689,2.051 -2.343,1.516 -1.76,3.461 -1.838,4.051 -0.077,0.589 0.444,1.102 1.042,0.757 0.596,-0.352 1.331,-0.359 2.113,-0.214 0.78,0.153 1.011,0.674 0.229,0.75 -0.765,0.069 -2.219,1.446 -2.588,1.944 -0.367,0.505 -0.136,1.401 0.46,1.486 0.582,0.092 1.868,0.321 2.267,0.704 0.383,0.383 0,1.042 -0.828,0.896 -0.826,-0.146 -3.474,-0.314 -3.875,0.191 -1.406,1.823 3.018,1.493 0.798,3.124 -0.598,0.444 -2.68,0.123 -3.506,0.781 -0.827,0.658 1.852,1.883 1.485,2.419 -0.368,0.537 -3.66,-0.842 -4.242,0 -0.581,0.842 1.7,3.981 0.69,4.103 -0.996,0.138 -2.666,-3.246 -3.844,-3.115 -1.179,0.13 -2.174,5.81 -3.339,5.542 -1.148,-0.267 -0.061,-4.724 -0.811,-4.96 -0.75,-0.238 -4.166,3.928 -4.915,3.682 -0.735,-0.237 1.302,-2.863 0.551,-3.108 -0.751,-0.238 -3.171,3.215 -4.195,2.572 -1.04,-0.643 2.405,-3.813 1.211,-4.609 -1.179,-0.795 -3.952,3.094 -5.392,2.114 -1.439,-0.981 3.445,-3.66 2.788,-4.487 -0.675,-0.835 -3.124,1.699 -4.134,0.031 -1.01,-1.662 3.812,-1.393 1.285,-3.453 -2.54,-2.052 -6.431,0.1 -7.348,-1.54 -0.43,-0.764 4.164,-1.309 4.21,-2.112 0.061,-0.811 -3.139,-0.95 -2.771,-1.762 0.368,-0.811 5.818,1.318 6.155,0.599 0.321,-0.721 -3.214,-3.874 -2.297,-5.131 0.918,-1.239 2.772,2.565 3.476,1.968 0.718,-0.597 -0.718,-6.3 0.536,-7.648 1.255,-1.348 0.719,4.739 1.805,4.257 1.073,-0.475 1.747,-5.88 2.558,-6.14 0.797,-0.253 1.179,3.031 1.654,2.97 0.477,-0.061 0.581,-4.195 1.977,-4.67 1.391,-0.482 1.636,4.678 3.459,3.514 1.822,-1.171 -0.522,-3.023 1.547,-3.69 2.083,-0.673 2.313,5.551 4.087,4.157 1.793,-1.378 0.492,-5.068 2.021,-4.686" />
      </g>
      <g
         style="fill:#ffffff"
         transform="matrix(0.3079718,0,0,-0.3079718,272.92086,874.70164)"
         id="g4698">
        <path
           inkscape:connector-curvature="0"
           id="path4700"
           style="fill:#ffffff;fill-opacity:1;fill-rule:evenodd;stroke:none"
           d="m 0,0 c -1.361,1.294 -4.072,1.31 -4.501,0.943 -0.658,-0.575 -4.135,2.978 -5.68,0.413 -1.561,-2.557 1.055,-4.593 1.7,-4.601 0.627,-0.008 2.297,-0.069 2.572,-0.912 0.274,-0.842 3.858,-1.102 4.624,-0.183 C -0.521,-3.421 1.363,-1.286 0,0" />
      </g>
      <g
         style="fill:#ffffff"
         transform="matrix(0.3079718,0,0,-0.3079718,300.56884,857.58136)"
         id="g4702">
        <path
           inkscape:connector-curvature="0"
           id="path4704"
           style="fill:#ffffff;fill-opacity:1;fill-rule:evenodd;stroke:none"
           d="m 0,0 -2.282,0 c 0.367,1.478 0.643,2.802 0.843,3.17 C -1.027,3.935 -0.704,0.996 0,0" />
      </g>
      <g
         style="fill:#ffffff"
         transform="matrix(0.3079718,0,0,-0.3079718,292.31193,857.50107)"
         id="g4706">
        <path
           inkscape:connector-curvature="0"
           id="path4708"
           style="fill:#ffffff;fill-opacity:1;fill-rule:evenodd;stroke:none"
           d="m 0,0 c 0.061,-0.084 0.091,-0.169 0.091,-0.261 l -2.404,0 C -1.394,0.183 -0.444,0.582 0,0" />
      </g>
      <g
         style="fill:#ffffff"
         transform="matrix(0.3079718,0,0,-0.3079718,288.49687,846.01859)"
         id="g4710">
        <path
           inkscape:connector-curvature="0"
           id="path4712"
           style="fill:#ffffff;fill-opacity:1;fill-rule:evenodd;stroke:none"
           d="m 0,0 c -0.645,-2.496 1.408,-5.466 0.856,-5.88 -0.689,-0.505 -1.912,1.623 -2.616,0.406 -0.706,-1.217 2.8,-3.974 2.403,-4.877 -0.382,-0.904 -3.047,2.756 -3.599,1.379 -0.534,-1.363 3.062,-5.957 2.664,-7.167 -0.382,-1.209 -2.893,3.621 -3.307,2.618 -0.429,-0.995 2.526,-5.045 2.266,-5.887 -0.275,-0.842 -2.678,3.438 -3.369,1.707 -0.703,-1.73 1.99,-3.43 1.914,-4.945 -0.075,-1.531 -3.69,-0.949 -3.643,-2.412 0.047,-1.462 5.527,-0.054 5.941,-1.325 0.413,-1.27 -3.553,-1.806 -3.401,-2.664 0.155,-0.849 5.36,-0.291 5.743,-1.026 0.382,-0.743 -1.531,-0.459 -1.302,-1.355 0.215,-0.896 5.099,-0.803 5.421,-1.416 0.305,-0.613 -2.542,-1.195 -1.776,-2.679 0.765,-1.477 5.159,1.453 6.049,0.65 0.765,-0.697 -1.962,-1.661 -2.39,-2.672 l -7.871,0 c -0.106,0.498 -0.168,0.965 -0.121,1.363 0.244,2.389 -4.074,4.103 -5.283,5.114 -2.02,1.669 -5.587,8.545 -3.444,13.964 1.576,3.997 1.867,7.978 1.821,10.061 L 0,0 Z" />
      </g>
      <g
         style="fill:#ffffff"
         transform="matrix(0.3079718,0,0,-0.3079718,291.08999,844.04039)"
         id="g4714">
        <path
           inkscape:connector-curvature="0"
           id="path4716"
           style="fill:#ffffff;fill-opacity:1;fill-rule:evenodd;stroke:none"
           d="m 0,0 c 0.966,-0.207 3.813,6.323 7.933,6.943 4.212,0.628 8.636,-1.699 10.733,-4.133 1.654,-1.9 7.396,-4.188 8.268,-7.871 0.444,-1.876 5.313,-3.796 7.642,-7.127 2.326,-3.33 1.898,-4.938 1.822,-6.248 -0.077,-1.522 3.459,-8.23 3.139,-11.117 -0.308,-2.885 1.76,-7.264 -0.308,-11.751 -0.49,-1.087 -1.009,-1.945 -1.546,-2.664 l -6.017,0 c 0.458,1.125 -1.638,4.853 -0.919,5.918 0.796,1.186 2.557,-3.912 3.078,-3.254 0.521,0.651 -2.48,5.436 -1.669,7.028 0.827,1.592 2.772,-5.528 3.675,-3.966 0.917,1.554 -3.415,6.355 -3.078,7.381 0.323,1.026 3.751,-3.062 4.364,-2.129 0.612,0.934 -4.333,3.736 -3.659,4.854 0.672,1.133 3.89,-2.556 4.455,-1.393 0.582,1.148 -4.502,3.613 -4.226,4.134 0.277,0.536 2.389,0.062 2.511,1.056 0.108,0.996 -4.839,1.654 -4.807,2.68 0.014,1.026 2.756,0.559 2.649,1.516 -0.108,0.964 -4.365,1.202 -4.211,2.603 0.138,1.394 4.38,-0.49 4.517,0.597 0.137,1.088 -3.185,1.286 -4.272,2.098 -1.089,0.827 -0.72,3.812 -1.745,3.828 -1.027,0.022 -1.103,-2.189 -2.496,-1.011 -1.41,1.179 0.657,4.318 -0.522,5.114 -1.194,0.796 -2.097,-2.312 -3.582,-1.837 -1.594,0.505 -0.934,6.691 -2.021,5.91 -1.073,-0.788 -0.46,-2.971 -1.409,-2.128 -0.935,0.842 -0.092,3.536 -1.195,4.303 -0.642,0.451 -1.408,-0.521 -1.99,-1.271 -0.413,-0.529 -0.736,-0.168 -0.521,0.26 0.46,0.995 1.226,2.327 0.43,2.511 -1.15,0.268 -2.604,-4.532 -3.568,-3.698 -0.966,0.827 1.883,3.308 0.092,3.79 C 9.739,1.401 8.881,-2.55 7.535,-1.6 6.187,-0.651 8.959,1.546 7.503,1.814 6.034,2.074 4.609,-4.892 3.185,-4.532 c -1.421,0.36 1.088,4.509 -1.147,3.774 -2.266,-0.736 -1.747,-6.355 -4.012,-6.033 -2.267,0.321 2.404,4.142 0.076,4.272 -2.327,0.138 -2.113,-5.466 -3.844,-6.048 -1.27,-0.413 -0.411,3.131 -0.81,4.011 l 5.13,5.138 C -0.779,0.313 -0.289,0.061 0,0" />
      </g>
      <g
         style="fill:#ffffff"
         transform="matrix(0.3079718,0,0,-0.3079718,299.33785,857.58136)"
         id="g4718">
        <path
           inkscape:connector-curvature="0"
           id="path4720"
           style="fill:#ffffff;fill-opacity:1;fill-rule:evenodd;stroke:none"
           d="m 0,0 -0.979,0 c 0.214,0.229 0.443,0.383 0.688,0.383 C -0.075,0.383 0,0.229 0,0" />
      </g>
      <g
         style="fill:#ffffff"
         transform="matrix(0.3079718,0,0,-0.3079718,296.60731,850.59289)"
         id="g4722">
        <path
           inkscape:connector-curvature="0"
           id="path4724"
           style="fill:#ffffff;fill-opacity:1;fill-rule:evenodd;stroke:none"
           d="m 0,0 c -3.552,-0.803 -3.336,2.878 -3.521,4.44 -0.168,1.57 -4.792,4.364 -5.42,1.777 -0.627,-2.58 -3.216,-0.674 -3.797,-1.83 -0.568,-1.156 -3.798,-2.611 -2.496,-5.213 3.322,-6.646 -0.536,-7.977 1.698,-8.797 1.595,-0.582 3.476,-5.574 4.32,-4.602 2.097,2.435 5.695,-0.291 5.986,0.858 0.584,2.297 3.306,1.776 3.736,2.695 0.49,1.049 -0.261,3.721 -0.704,4.578 C -0.641,-5.222 3.569,0.812 0,0 m 7.963,-11.713 c -0.399,-1.516 -4.961,-0.444 -5.252,-1.379 -0.306,-0.933 3.339,-2.012 2.726,-2.954 -0.613,-0.934 -3.888,-0.122 -4.563,0.122 -0.935,0.322 -0.981,-0.735 -0.398,-1.569 0.596,-0.827 0.751,-1.99 0.811,-2.427 0.078,-0.43 -0.521,-1.654 -2.036,0.689 -1.516,2.342 -3.461,1.752 -4.058,1.837 -0.582,0.077 -1.103,-0.452 -0.751,-1.042 0.354,-0.596 0.354,-1.331 0.216,-2.112 -0.154,-0.774 -0.674,-1.01 -0.75,-0.238 -0.078,0.774 -1.456,2.221 -1.947,2.588 -0.504,0.367 -1.407,0.146 -1.482,-0.452 -0.094,-0.581 -0.323,-1.876 -0.708,-2.266 -0.381,-0.382 -1.039,0 -0.902,0.827 0.153,0.82 0.322,3.477 -0.183,3.874 -1.823,1.409 -1.5,-3.024 -3.124,-0.796 -0.444,0.597 -0.123,2.671 -0.781,3.506 -0.658,0.828 -1.885,-1.852 -2.42,-1.484 -0.536,0.366 0.842,3.659 0,4.233 -0.841,0.582 -3.98,-1.692 -4.118,-0.697 -0.122,1.011 3.261,2.681 3.124,3.858 -0.138,1.179 -5.804,2.175 -5.544,3.331 0.278,1.156 4.733,0.069 4.962,0.819 0.245,0.743 -3.92,4.165 -3.675,4.9 0.228,0.75 2.864,-1.286 3.108,-0.536 0.229,0.751 -3.215,3.169 -2.573,4.196 0.645,1.033 3.813,-2.404 4.609,-1.21 0.797,1.179 -3.092,3.95 -2.112,5.39 0.979,1.439 3.66,-3.446 4.485,-2.779 0.827,0.658 -1.698,3.116 -0.029,4.127 1.653,1.01 1.393,-3.821 3.446,-1.287 2.05,2.534 -0.094,6.423 1.544,7.342 0.767,0.437 1.302,-4.157 2.113,-4.203 0.813,-0.061 0.949,3.139 1.762,2.772 0.81,-0.369 -1.318,-5.819 -0.597,-6.156 0.719,-0.33 3.873,3.216 5.114,2.296 C -0.764,10.489 -4.577,8.637 -3.98,7.924 -3.383,7.212 2.327,8.651 3.677,7.396 5.022,6.141 -1.071,6.676 -0.595,5.589 -0.107,4.51 5.299,3.836 5.544,3.032 5.805,2.229 2.527,1.845 2.588,1.371 2.649,0.903 6.785,0.797 7.259,-0.597 7.733,-1.99 2.573,-2.235 3.738,-4.057 c 1.178,-1.823 3.03,0.52 3.704,-1.554 0.675,-2.076 -5.558,-2.305 -4.18,-4.081 1.394,-1.791 5.083,-0.49 4.701,-2.021" />
      </g>
      <g
         style="fill:#ffffff"
         transform="matrix(0.3079718,0,0,-0.3079718,294.05151,853.56843)"
         id="g4726">
        <path
           inkscape:connector-curvature="0"
           id="path4728"
           style="fill:#ffffff;fill-opacity:1;fill-rule:evenodd;stroke:none"
           d="M 0,0 C -1.284,1.363 -1.302,4.073 -0.934,4.502 -0.367,5.16 -3.918,8.636 -1.346,10.183 1.211,11.729 3.247,9.126 3.247,8.483 3.262,7.848 3.322,6.186 4.165,5.91 5.008,5.635 5.268,2.052 4.35,1.286 3.431,0.521 1.287,-1.363 0,0" />
      </g>
      <g
         style="fill:#ffffff"
         transform="matrix(0.3079718,0,0,-0.3079718,276.9341,833.9465)"
         id="g4730">
        <path
           inkscape:connector-curvature="0"
           id="path4732"
           style="fill:#ffffff;fill-opacity:1;fill-rule:evenodd;stroke:none"
           d="m 0,0 0,-2.282 c -1.485,0.368 -2.802,0.651 -3.171,0.843 C -3.935,-1.026 -0.995,-0.713 0,0" />
      </g>
      <g
         style="fill:#ffffff"
         transform="matrix(0.3079718,0,0,-0.3079718,276.85412,842.20384)"
         id="g4734">
        <path
           inkscape:connector-curvature="0"
           id="path4736"
           style="fill:#ffffff;fill-opacity:1;fill-rule:evenodd;stroke:none"
           d="m 0,0 c 0.076,0.062 0.169,0.084 0.26,0.093 l 0,-2.405 C -0.184,-1.394 -0.581,-0.452 0,0" />
      </g>
      <g
         style="fill:#ffffff"
         transform="matrix(0.3079718,0,0,-0.3079718,265.37133,846.01859)"
         id="g4738">
        <path
           inkscape:connector-curvature="0"
           id="path4740"
           style="fill:#ffffff;fill-opacity:1;fill-rule:evenodd;stroke:none"
           d="M 0,0 C 2.496,-0.644 5.467,1.417 5.88,0.857 6.384,0.176 4.256,-1.057 5.467,-1.761 6.691,-2.465 9.449,1.041 10.352,0.65 11.254,0.26 7.595,-2.404 8.973,-2.948 c 1.363,-0.543 5.942,3.055 7.165,2.665 1.211,-0.391 -3.628,-2.894 -2.617,-3.323 0.995,-0.421 5.037,2.534 5.88,2.274 0.842,-0.276 -3.429,-2.68 -1.699,-3.369 1.729,-0.704 3.427,1.983 4.945,1.906 1.531,-0.076 0.949,-3.682 2.418,-3.636 1.456,0.046 0.046,5.528 1.317,5.941 1.272,0.413 1.807,-3.553 2.664,-3.4 0.842,0.153 0.293,5.36 1.025,5.743 0.737,0.382 0.462,-1.531 1.35,-1.31 0.903,0.223 0.796,5.107 1.424,5.429 0.612,0.313 1.194,-2.542 2.679,-1.776 1.47,0.764 -1.456,5.159 -0.659,6.04 0.704,0.766 1.669,-1.961 2.68,-2.382 l 0,-7.87 C 37.039,-0.131 36.581,-0.184 36.182,-0.138 33.794,0.107 32.079,-4.21 31.066,-5.428 29.4,-7.442 22.524,-11.009 17.104,-8.866 13.107,-7.289 9.126,-6.998 7.044,-7.043 L 0,0 Z" />
      </g>
      <g
         style="fill:#ffffff"
         transform="matrix(0.3079718,0,0,-0.3079718,263.39597,843.42519)"
         id="g4742">
        <path
           inkscape:connector-curvature="0"
           id="path4744"
           style="fill:#ffffff;fill-opacity:1;fill-rule:evenodd;stroke:none"
           d="m 0,0 c 0.198,0.965 -6.341,3.813 -6.953,7.932 -0.629,4.218 1.701,8.628 4.135,10.733 1.898,1.654 4.196,7.396 7.868,8.269 1.887,0.444 3.799,5.313 7.121,7.64 3.34,2.328 4.947,1.892 6.247,1.823 1.533,-0.077 8.239,3.46 11.116,3.138 2.895,-0.306 7.275,1.761 11.76,-0.306 1.089,-0.489 1.946,-1.01 2.665,-1.539 l 0,-6.017 c -1.133,0.452 -4.855,-1.646 -5.926,-0.926 -1.179,0.795 3.92,2.549 3.261,3.077 -0.657,0.521 -5.436,-2.481 -7.027,-1.654 -1.594,0.812 5.527,2.757 3.964,3.667 -1.561,0.912 -6.353,-3.421 -7.38,-3.085 -1.025,0.331 3.063,3.752 2.128,4.365 -0.934,0.612 -3.734,-4.334 -4.851,-3.66 -1.133,0.673 2.557,3.889 1.392,4.462 -1.148,0.575 -3.614,-4.508 -4.149,-4.232 -0.521,0.275 -0.047,2.388 -1.042,2.51 -0.996,0.108 -1.654,-4.838 -2.68,-4.815 -1.025,0.023 -0.566,2.764 -1.514,2.657 -0.966,-0.107 -1.211,-4.356 -2.605,-4.212 -1.392,0.139 0.491,4.372 -0.595,4.518 -1.088,0.146 -1.288,-3.185 -2.099,-4.273 -0.827,-1.086 -3.813,-0.719 -3.828,-1.745 -0.03,-1.025 2.189,-1.102 1.011,-2.503 C 10.839,24.423 7.7,26.49 6.904,25.304 6.107,24.117 9.216,23.213 8.742,21.728 8.237,20.135 2.05,20.793 2.831,19.708 3.628,18.635 5.801,19.248 4.96,18.298 4.118,17.364 1.422,18.207 0.656,17.112 0.213,16.468 1.177,15.695 1.928,15.113 2.464,14.699 2.097,14.385 1.667,14.592 0.671,15.052 -0.66,15.817 -0.844,15.021 -1.104,13.866 3.689,12.418 2.846,11.453 2.02,10.489 -0.462,13.344 -0.935,11.538 -1.411,9.739 2.54,8.874 1.591,7.534 0.642,6.186 -1.562,8.958 -1.825,7.496 -2.084,6.033 4.884,4.617 4.517,3.185 4.163,1.754 0.015,4.28 0.749,2.029 1.483,-0.229 7.103,0.291 6.782,-1.975 6.46,-4.241 2.633,0.429 2.511,-1.906 2.373,-4.233 7.976,-4.011 8.559,-5.742 8.972,-7.012 5.419,-6.155 4.546,-6.553 l -5.145,5.137 C -0.323,-0.773 -0.078,-0.29 0,0" />
      </g>
      <g
         style="fill:#ffffff"
         transform="matrix(0.3079718,0,0,-0.3079718,276.9341,835.17749)"
         id="g4746">
        <path
           inkscape:connector-curvature="0"
           id="path4748"
           style="fill:#ffffff;fill-opacity:1;fill-rule:evenodd;stroke:none"
           d="m 0,0 0,-0.98 c -0.245,0.214 -0.382,0.444 -0.382,0.689 C -0.382,-0.077 -0.23,0 0,0" />
      </g>
      <g
         style="fill:#ffffff"
         transform="matrix(0.3079718,0,0,-0.3079718,269.94579,837.90787)"
         id="g4750">
        <path
           inkscape:connector-curvature="0"
           id="path4752"
           style="fill:#ffffff;fill-opacity:1;fill-rule:evenodd;stroke:none"
           d="m 0,0 c 0.811,-3.552 -2.879,-3.338 -4.44,-3.514 -1.578,-0.176 -4.365,-4.8 -1.779,-5.428 2.574,-0.628 0.675,-3.216 1.825,-3.789 1.163,-0.575 2.618,-3.806 5.22,-2.504 6.646,3.322 7.978,-0.536 8.789,1.699 0.582,1.593 5.573,3.476 4.61,4.318 -2.436,2.098 0.29,5.697 -0.858,5.988 C 11.07,-2.649 11.589,0.084 10.672,0.513 9.615,0.995 6.95,0.245 6.077,-0.199 5.222,-0.643 -0.827,3.569 0,0 m 11.712,7.962 c 1.517,-0.39 0.444,-4.961 1.379,-5.259 0.932,-0.299 2.007,3.345 2.956,2.733 0.934,-0.612 0.122,-3.889 -0.122,-4.563 -0.322,-0.935 0.733,-0.98 1.56,-0.398 0.827,0.597 1.992,0.75 2.435,0.819 0.43,0.069 1.653,-0.528 -0.689,-2.044 -2.343,-1.516 -1.76,-3.461 -1.838,-4.057 -0.077,-0.589 0.444,-1.103 1.042,-0.751 0.596,0.352 1.331,0.352 2.113,0.214 0.78,-0.153 1.011,-0.673 0.229,-0.75 -0.765,-0.076 -2.219,-1.454 -2.588,-1.945 -0.367,-0.505 -0.136,-1.4 0.46,-1.492 0.582,-0.084 1.868,-0.315 2.267,-0.697 0.383,-0.383 0,-1.05 -0.828,-0.904 -0.826,0.154 -3.474,0.321 -3.875,-0.191 -1.406,-1.814 3.018,-1.493 0.798,-3.123 -0.598,-0.437 -2.68,-0.116 -3.506,-0.774 -0.827,-0.666 1.852,-1.883 1.485,-2.419 -0.368,-0.535 -3.66,0.842 -4.242,0 -0.581,-0.842 1.7,-3.98 0.69,-4.111 -0.996,-0.131 -2.666,3.253 -3.844,3.116 -1.179,-0.137 -2.174,-5.803 -3.339,-5.543 -1.148,0.275 -0.061,4.731 -0.811,4.969 -0.75,0.236 -4.166,-3.928 -4.915,-3.683 -0.735,0.229 1.302,2.863 0.551,3.1 -0.751,0.238 -3.171,-3.208 -4.195,-2.564 -1.04,0.635 2.405,3.813 1.211,4.608 -1.179,0.789 -3.952,-3.093 -5.392,-2.112 -1.439,0.98 3.445,3.659 2.788,4.485 -0.675,0.835 -3.124,-1.698 -4.134,-0.037 -1.01,1.669 3.812,1.401 1.285,3.453 -2.54,2.051 -6.431,-0.092 -7.348,1.546 -0.43,0.766 4.164,1.302 4.21,2.114 0.061,0.811 -3.139,0.948 -2.771,1.76 0.368,0.811 5.818,-1.317 6.155,-0.597 0.321,0.719 -3.214,3.874 -2.297,5.122 0.918,1.248 2.772,-2.558 3.476,-1.961 0.718,0.59 -0.718,6.302 0.536,7.649 1.255,1.348 0.719,-4.739 1.805,-4.264 1.073,0.475 1.747,5.887 2.558,6.14 0.797,0.252 1.179,-3.025 1.654,-2.963 0.477,0.061 0.581,4.188 1.977,4.67 1.391,0.475 1.636,-4.685 3.459,-3.522 1.822,1.179 -0.522,3.032 1.547,3.698 2.083,0.674 2.313,-5.55 4.087,-4.165 1.793,1.386 0.492,5.076 2.021,4.693" />
      </g>
      <g
         style="fill:#ffffff"
         transform="matrix(0.3079718,0,0,-0.3079718,272.92086,840.46352)"
         id="g4754">
        <path
           inkscape:connector-curvature="0"
           id="path4756"
           style="fill:#ffffff;fill-opacity:1;fill-rule:evenodd;stroke:none"
           d="m 0,0 c -1.361,-1.286 -4.072,-1.31 -4.501,-0.934 -0.658,0.566 -4.135,-2.979 -5.68,-0.414 -1.561,2.557 1.055,4.594 1.7,4.594 0.627,0.015 2.297,0.076 2.572,0.918 0.274,0.842 3.858,1.095 4.624,0.184 C -0.521,3.43 1.363,1.286 0,0" />
      </g>
      <g
         style="fill:#ffffff"
         transform="matrix(0.3079718,0,0,-0.3079718,253.29923,857.58136)"
         id="g4758">
        <path
           inkscape:connector-curvature="0"
           id="path4760"
           style="fill:#ffffff;fill-opacity:1;fill-rule:evenodd;stroke:none"
           d="M 0,0 2.283,0 C 1.916,-1.478 1.624,-2.801 1.44,-3.177 1.028,-3.935 0.704,-0.996 0,0" />
      </g>
      <g
         style="fill:#ffffff"
         transform="matrix(0.3079718,0,0,-0.3079718,261.55627,857.66152)"
         id="g4762">
        <path
           inkscape:connector-curvature="0"
           id="path4764"
           style="fill:#ffffff;fill-opacity:1;fill-rule:evenodd;stroke:none"
           d="m 0,0 c -0.061,0.084 -0.09,0.168 -0.09,0.26 l 2.402,0 C 1.394,-0.184 0.445,-0.583 0,0" />
      </g>
      <g
         style="fill:#ffffff"
         transform="matrix(0.3079718,0,0,-0.3079718,265.37133,869.14626)"
         id="g4766">
        <path
           inkscape:connector-curvature="0"
           id="path4768"
           style="fill:#ffffff;fill-opacity:1;fill-rule:evenodd;stroke:none"
           d="m 0,0 c 0.645,2.503 -1.408,5.474 -0.856,5.887 0.671,0.505 1.912,-1.623 2.616,-0.406 0.707,1.218 -2.8,3.974 -2.417,4.877 0.396,0.904 3.061,-2.756 3.596,-1.386 0.552,1.371 -3.045,5.957 -2.662,7.174 0.397,1.21 2.908,-3.629 3.322,-2.626 0.429,1.003 -2.526,5.046 -2.266,5.888 0.275,0.842 2.678,-3.43 3.368,-1.7 0.704,1.73 -1.989,3.429 -1.914,4.945 0.076,1.524 3.691,0.95 3.644,2.412 -0.047,1.455 -5.527,0.054 -5.941,1.325 -0.413,1.271 3.553,1.806 3.399,2.664 -0.153,0.849 -5.358,0.291 -5.741,1.026 -0.383,0.743 1.531,0.459 1.302,1.347 -0.215,0.904 -5.099,0.804 -5.421,1.424 -0.321,0.612 2.526,1.195 1.776,2.679 -0.765,1.479 -5.159,-1.454 -6.05,-0.657 -0.764,0.696 1.962,1.661 2.391,2.679 l 7.869,0 C 0.123,37.046 0.184,36.587 0.138,36.189 -0.106,33.8 4.212,32.085 5.42,31.075 7.44,29.406 11.01,22.523 8.865,17.11 7.289,13.106 6.997,9.133 7.044,7.043 L 0,0 Z" />
      </g>
      <g
         style="fill:#ffffff"
         transform="matrix(0.3079718,0,0,-0.3079718,262.77824,871.12236)"
         id="g4770">
        <path
           inkscape:connector-curvature="0"
           id="path4772"
           style="fill:#ffffff;fill-opacity:1;fill-rule:evenodd;stroke:none"
           d="m 0,0 c -0.966,0.207 -3.813,-6.331 -7.933,-6.943 -4.226,-0.628 -8.637,1.699 -10.734,4.133 -1.654,1.9 -7.395,4.188 -8.267,7.871 -0.444,1.876 -5.313,3.798 -7.642,7.12 -2.327,3.331 -1.898,4.945 -1.822,6.247 0.077,1.531 -3.46,8.23 -3.139,11.117 0.308,2.893 -1.76,7.272 0.308,11.759 0.489,1.088 1.01,1.945 1.546,2.664 l 6.016,0 c -0.458,-1.133 1.639,-4.853 0.92,-5.925 -0.796,-1.179 -2.557,3.919 -3.078,3.261 -0.521,-0.658 2.48,-5.436 1.654,-7.028 -0.812,-1.592 -2.757,5.527 -3.675,3.966 -0.903,-1.562 3.43,-6.354 3.093,-7.381 -0.323,-1.033 -3.751,3.063 -4.364,2.129 -0.612,-0.942 4.332,-3.737 3.659,-4.862 -0.672,-1.125 -3.89,2.557 -4.47,1.401 -0.567,-1.149 4.516,-3.613 4.241,-4.141 -0.276,-0.528 -2.389,-0.055 -2.512,-1.049 -0.106,-0.996 4.84,-1.661 4.808,-2.68 -0.015,-1.027 -2.756,-0.567 -2.649,-1.523 0.108,-0.957 4.349,-1.202 4.21,-2.595 -0.137,-1.394 -4.379,0.489 -4.516,-0.598 -0.152,-1.095 3.185,-1.287 4.271,-2.105 1.089,-0.819 0.721,-3.806 1.747,-3.828 1.026,-0.023 1.102,2.197 2.495,1.018 1.41,-1.179 -0.657,-4.318 0.522,-5.114 1.194,-0.796 2.097,2.312 3.582,1.837 1.592,-0.513 0.934,-6.691 2.021,-5.911 1.071,0.782 0.46,2.972 1.409,2.129 0.934,-0.842 0.092,-3.537 1.179,-4.302 0.643,-0.46 1.423,0.52 2.006,1.27 0.413,0.529 0.719,0.169 0.521,-0.26 -0.46,-0.995 -1.226,-2.326 -0.43,-2.511 1.15,-0.268 2.605,4.524 3.568,3.69 0.965,-0.827 -1.898,-3.307 -0.092,-3.782 1.808,-0.474 2.666,3.476 4.012,2.527 1.348,-0.95 -1.424,-3.154 0.032,-3.415 1.468,-0.26 2.894,6.707 4.318,6.339 C -1.746,4.173 -4.289,0.023 -2.038,0.759 0.228,1.494 -0.292,7.105 1.974,6.792 4.239,6.47 -0.43,2.642 1.898,2.52 4.225,2.381 4.011,7.985 5.739,8.567 7.012,8.981 6.153,5.429 6.552,4.548 L 1.407,-0.588 C 0.765,-0.313 0.289,-0.061 0,0" />
      </g>
      <g
         style="fill:#ffffff"
         transform="matrix(0.3079718,0,0,-0.3079718,254.5302,857.58136)"
         id="g4774">
        <path
           inkscape:connector-curvature="0"
           id="path4776"
           style="fill:#ffffff;fill-opacity:1;fill-rule:evenodd;stroke:none"
           d="M 0,0 0.981,0 C 0.766,-0.237 0.537,-0.383 0.292,-0.383 0.076,-0.383 0,-0.229 0,0" />
      </g>
      <g
         style="fill:#ffffff"
         transform="matrix(0.3079718,0,0,-0.3079718,257.26074,864.57223)"
         id="g4778">
        <path
           inkscape:connector-curvature="0"
           id="path4780"
           style="fill:#ffffff;fill-opacity:1;fill-rule:evenodd;stroke:none"
           d="m 0,0 c 3.552,0.812 3.337,-2.871 3.506,-4.433 0.183,-1.577 4.807,-4.364 5.436,-1.776 0.627,2.572 3.216,0.674 3.78,1.822 0.584,1.164 3.815,2.618 2.513,5.221 -3.322,6.639 0.535,7.979 -1.698,8.79 -1.595,0.581 -3.477,5.581 -4.321,4.608 C 7.12,11.797 3.521,14.523 3.23,13.375 2.647,11.07 -0.076,11.599 -0.506,10.68 -0.996,9.624 -0.245,6.96 0.198,6.094 0.642,5.229 -3.569,-0.818 0,0 m -7.962,11.714 c 0.398,1.523 4.961,0.451 5.252,1.386 0.305,0.933 -3.339,2.004 -2.726,2.946 0.612,0.942 3.888,0.123 4.562,-0.113 0.935,-0.323 0.982,0.734 0.399,1.561 -0.597,0.826 -0.751,1.99 -0.827,2.434 -0.061,0.429 0.536,1.655 2.052,-0.689 1.515,-2.342 3.46,-1.76 4.058,-1.837 0.581,-0.085 1.103,0.444 0.75,1.041 -0.353,0.597 -0.353,1.332 -0.215,2.114 0.154,0.772 0.673,1.01 0.75,0.229 0.077,-0.774 1.455,-2.221 1.947,-2.588 0.504,-0.368 1.392,-0.137 1.482,0.452 0.093,0.589 0.322,1.883 0.707,2.273 0.382,0.384 1.057,-0.007 0.902,-0.826 -0.153,-0.826 -0.322,-3.475 0.184,-3.874 1.822,-1.409 1.5,3.016 3.124,0.797 0.443,-0.598 0.123,-2.68 0.78,-3.507 0.659,-0.827 1.885,1.852 2.42,1.485 0.536,-0.367 -0.842,-3.66 0,-4.242 0.842,-0.581 3.981,1.7 4.104,0.697 0.136,-1.01 -3.247,-2.671 -3.11,-3.85 C 18.756,6.423 24.438,5.42 24.177,4.264 23.9,3.117 19.445,4.203 19.2,3.453 c -0.23,-0.742 3.935,-4.165 3.69,-4.915 -0.228,-0.744 -2.863,1.295 -3.107,0.551 -0.245,-0.75 3.215,-3.17 2.573,-4.203 -0.646,-1.034 -3.814,2.411 -4.609,1.217 -0.798,-1.187 3.091,-3.95 2.112,-5.39 -0.98,-1.439 -3.66,3.438 -4.485,2.78 -0.827,-0.667 1.698,-3.116 0.029,-4.127 -1.653,-1.011 -1.394,3.821 -3.445,1.286 -2.051,-2.542 0.092,-6.423 -1.545,-7.349 -0.768,-0.429 -1.319,4.165 -2.114,4.21 -0.812,0.061 -0.95,-3.138 -1.761,-2.771 -0.811,0.367 1.317,5.819 0.596,6.147 -0.718,0.338 -3.873,-3.207 -5.128,-2.288 -1.242,0.91 2.556,2.771 1.975,3.475 -0.598,0.719 -6.308,-0.72 -7.657,0.535 -1.346,1.257 4.733,0.721 4.257,1.807 -0.473,1.073 -5.88,1.746 -6.14,2.558 -0.244,0.796 3.031,1.179 2.972,1.654 -0.062,0.474 -4.197,0.582 -4.671,1.974 -0.475,1.395 4.685,1.64 3.52,3.461 -1.178,1.815 -3.029,-0.52 -3.704,1.547 -0.675,2.075 5.559,2.305 4.164,4.088 -1.378,1.792 -5.069,0.49 -4.684,2.014" />
      </g>
      <g
         style="fill:#ffffff"
         transform="matrix(0.3079718,0,0,-0.3079718,259.81656,861.59432)"
         id="g4782">
        <path
           inkscape:connector-curvature="0"
           id="path4784"
           style="fill:#ffffff;fill-opacity:1;fill-rule:evenodd;stroke:none"
           d="m 0,0 c 1.285,-1.362 1.3,-4.073 0.935,-4.501 -0.567,-0.66 2.969,-4.142 0.411,-5.689 -2.557,-1.546 -4.593,1.064 -4.593,1.707 -0.014,0.628 -0.078,2.297 -0.918,2.572 -0.842,0.269 -1.102,3.86 -0.185,4.624 C -3.43,-0.521 -1.287,1.363 0,0" />
      </g>
      <g
         style="fill:#ffffff"
         transform="matrix(0.3079718,0,0,-0.3079718,276.9341,881.21579)"
         id="g4786">
        <path
           inkscape:connector-curvature="0"
           id="path4788"
           style="fill:#ffffff;fill-opacity:1;fill-rule:evenodd;stroke:none"
           d="M 0,0 0,2.281 C 1.485,1.907 2.803,1.623 3.171,1.423 3.935,1.025 0.995,0.704 0,0" />
      </g>
      <g
         style="fill:#ffffff"
         transform="matrix(0.3079718,0,0,-0.3079718,277.01411,872.95876)"
         id="g4790">
        <path
           inkscape:connector-curvature="0"
           id="path4792"
           style="fill:#ffffff;fill-opacity:1;fill-rule:evenodd;stroke:none"
           d="m 0,0 c -0.076,-0.062 -0.169,-0.093 -0.26,-0.093 l 0,2.397 C 0.185,1.393 0.581,0.444 0,0" />
      </g>
      <g
         style="fill:#ffffff"
         transform="matrix(0.3079718,0,0,-0.3079718,288.49687,869.14626)"
         id="g4794">
        <path
           inkscape:connector-curvature="0"
           id="path4796"
           style="fill:#ffffff;fill-opacity:1;fill-rule:evenodd;stroke:none"
           d="m 0,0 c -2.496,0.65 -5.467,-1.41 -5.88,-0.851 -0.504,0.674 1.624,1.915 0.413,2.619 -1.224,0.696 -3.982,-2.81 -4.884,-2.419 -0.904,0.399 2.755,3.063 1.378,3.606 -1.363,0.544 -5.957,-3.055 -7.165,-2.672 -1.211,0.398 3.613,2.902 2.617,3.322 -0.996,0.43 -5.054,-2.534 -5.88,-2.266 -0.842,0.276 3.429,2.673 1.699,3.369 -1.729,0.705 -3.428,-1.99 -4.945,-1.914 -1.531,0.078 -0.949,3.69 -2.418,3.636 -1.456,-0.038 -0.047,-5.519 -1.317,-5.932 -1.272,-0.422 -1.807,3.544 -2.664,3.391 -0.842,-0.146 -0.293,-5.351 -1.027,-5.734 -0.735,-0.384 -0.46,1.531 -1.348,1.301 -0.903,-0.222 -0.81,-5.099 -1.424,-5.42 -0.612,-0.314 -1.194,2.526 -2.679,1.777 -1.485,-0.767 1.456,-5.169 0.659,-6.049 -0.703,-0.765 -1.669,1.96 -2.68,2.381 l 0,7.877 c 0.506,0.108 0.964,0.169 1.363,0.123 2.388,-0.253 4.103,4.073 5.115,5.282 1.667,2.022 8.543,5.589 13.963,3.446 3.997,-1.584 7.978,-1.875 10.06,-1.83 L 0,0 Z" />
      </g>
      <g
         style="fill:#ffffff"
         transform="matrix(0.3079718,0,0,-0.3079718,290.47254,871.73768)"
         id="g4798">
        <path
           inkscape:connector-curvature="0"
           id="path4800"
           style="fill:#ffffff;fill-opacity:1;fill-rule:evenodd;stroke:none"
           d="m 0,0 c -0.199,-0.963 6.325,-3.813 6.952,-7.931 0.628,-4.226 -1.701,-8.636 -4.136,-10.734 -1.897,-1.654 -4.195,-7.396 -7.867,-8.268 -1.886,-0.444 -3.799,-5.314 -7.121,-7.64 -3.339,-2.328 -4.947,-1.891 -6.264,-1.823 -1.515,0.076 -8.222,-3.46 -11.115,-3.146 -2.879,0.313 -7.259,-1.754 -11.744,0.313 -1.089,0.491 -1.946,1.012 -2.665,1.539 l 0,6.018 c 1.133,-0.453 4.855,1.647 5.926,0.926 1.179,-0.796 -3.92,-2.556 -3.261,-3.077 0.657,-0.522 5.436,2.481 7.027,1.654 1.594,-0.82 -5.526,-2.757 -3.964,-3.676 1.561,-0.904 6.352,3.423 7.38,3.093 1.025,-0.336 -3.063,-3.751 -2.128,-4.363 0.934,-0.613 3.734,4.332 4.851,3.659 1.133,-0.674 -2.557,-3.889 -1.392,-4.471 1.148,-0.574 3.614,4.517 4.134,4.24 0.536,-0.274 0.062,-2.387 1.057,-2.51 0.996,-0.107 1.654,4.831 2.68,4.808 1.025,-0.015 0.566,-2.756 1.514,-2.649 0.966,0.1 1.196,4.348 2.605,4.211 1.392,-0.137 -0.491,-4.379 0.596,-4.518 1.087,-0.153 1.287,3.186 2.098,4.273 0.826,1.08 3.813,0.719 3.828,1.746 0.03,1.025 -2.189,1.102 -1.011,2.495 1.18,1.409 4.319,-0.667 5.115,0.52 0.795,1.195 -2.312,2.091 -1.838,3.584 0.504,1.592 6.692,0.934 5.911,2.021 -0.798,1.072 -2.97,0.459 -2.129,1.401 0.842,0.942 3.538,0.1 4.304,1.187 0.443,0.642 -0.521,1.423 -1.273,2.006 -0.52,0.398 -0.168,0.727 0.262,0.521 0.996,-0.46 2.327,-1.226 2.511,-0.43 0.26,1.148 -4.533,2.596 -3.707,3.568 0.828,0.965 3.307,-1.891 3.798,-0.091 0.476,1.806 -3.475,2.664 -2.526,4.011 0.949,1.347 3.154,-1.424 3.415,0.03 0.26,1.47 -6.708,2.887 -6.355,4.318 0.367,1.424 4.516,-1.102 3.782,1.149 -0.736,2.259 -6.354,1.745 -6.033,4.012 0.322,2.266 4.149,-2.404 4.271,-0.077 0.138,2.328 -5.465,2.113 -6.048,3.843 -0.413,1.272 3.14,0.414 4.013,0.804 L 0.583,1.41 C 0.322,0.766 0.077,0.292 0,0" />
      </g>
      <g
         style="fill:#ffffff"
         transform="matrix(0.3079718,0,0,-0.3079718,276.9341,879.98511)"
         id="g4802">
        <path
           inkscape:connector-curvature="0"
           id="path4804"
           style="fill:#ffffff;fill-opacity:1;fill-rule:evenodd;stroke:none"
           d="M 0,0 0,0.98 C 0.23,0.758 0.382,0.536 0.382,0.291 0.382,0.077 0.23,0 0,0" />
      </g>
      <g
         style="fill:#ffffff"
         transform="matrix(0.3079718,0,0,-0.3079718,283.92241,877.25728)"
         id="g4806">
        <path
           inkscape:connector-curvature="0"
           id="path4808"
           style="fill:#ffffff;fill-opacity:1;fill-rule:evenodd;stroke:none"
           d="m 0,0 c -0.811,3.561 2.879,3.338 4.44,3.514 1.563,0.184 4.365,4.808 1.779,5.436 -2.574,0.628 -0.675,3.215 -1.84,3.781 -1.148,0.583 -2.604,3.813 -5.205,2.512 -6.647,-3.33 -7.978,0.537 -8.804,-1.707 -0.567,-1.585 -5.573,-3.469 -4.595,-4.318 2.435,-2.097 -0.29,-5.688 0.859,-5.98 2.296,-0.581 1.777,-3.315 2.694,-3.743 1.057,-0.49 3.722,0.268 4.577,0.713 C -5.222,0.651 0.812,-3.56 0,0 m -11.712,-7.955 c -1.517,0.392 -0.444,4.962 -1.378,5.252 -0.933,0.307 -2.008,-3.337 -2.957,-2.725 -0.934,0.613 -0.122,3.889 0.122,4.563 0.322,0.934 -0.733,0.98 -1.56,0.391 -0.827,-0.59 -2.006,-0.751 -2.435,-0.819 -0.431,-0.061 -1.653,0.536 0.688,2.051 2.344,1.516 1.761,3.461 1.839,4.051 0.077,0.589 -0.444,1.102 -1.042,0.757 -0.596,-0.352 -1.331,-0.359 -2.114,-0.214 -0.764,0.153 -1.01,0.674 -0.228,0.75 0.765,0.069 2.219,1.446 2.588,1.944 0.367,0.505 0.136,1.401 -0.46,1.486 -0.583,0.092 -1.882,0.321 -2.267,0.704 -0.383,0.383 0,1.042 0.828,0.896 0.826,-0.146 3.476,-0.314 3.874,0.191 1.407,1.823 -3.018,1.493 -0.797,3.124 0.597,0.444 2.68,0.123 3.506,0.781 0.827,0.658 -1.852,1.883 -1.485,2.419 0.367,0.537 3.66,-0.842 4.242,0 0.58,0.842 -1.7,3.981 -0.704,4.103 1.01,0.138 2.68,-3.246 3.857,-3.115 1.18,0.13 2.175,5.81 3.34,5.542 1.147,-0.267 0.061,-4.724 0.811,-4.96 0.75,-0.238 4.166,3.928 4.899,3.682 C 2.206,22.662 0.169,20.036 0.92,19.791 1.671,19.553 4.09,23.006 5.115,22.363 6.155,21.72 2.71,18.55 3.904,17.754 c 1.179,-0.795 3.951,3.094 5.392,2.114 1.439,-0.981 -3.446,-3.66 -2.788,-4.487 0.66,-0.835 3.124,1.699 4.134,0.031 1.01,-1.662 -3.827,-1.393 -1.285,-3.453 2.54,-2.052 6.414,0.1 7.348,-1.54 C 17.135,9.655 12.541,9.11 12.494,8.307 12.434,7.496 15.635,7.357 15.266,6.545 14.898,5.734 9.448,7.863 9.112,7.144 8.774,6.423 12.325,3.27 11.407,2.013 10.49,0.774 8.636,4.578 7.932,3.981 7.212,3.384 8.65,-2.319 7.396,-3.667 6.14,-5.015 6.677,1.072 5.591,0.59 4.503,0.115 3.846,-5.29 3.031,-5.55 2.236,-5.803 1.854,-2.519 1.379,-2.58 0.902,-2.641 0.798,-6.775 -0.598,-7.25 c -1.392,-0.482 -1.636,4.678 -3.459,3.514 -1.822,-1.171 0.522,-3.023 -1.547,-3.69 -2.083,-0.673 -2.313,5.551 -4.087,4.157 -1.793,-1.378 -0.492,-5.068 -2.021,-4.686" />
      </g>
      <g
         style="fill:#ffffff"
         transform="matrix(0.3079718,0,0,-0.3079718,280.94706,874.70164)"
         id="g4810">
        <path
           inkscape:connector-curvature="0"
           id="path4812"
           style="fill:#ffffff;fill-opacity:1;fill-rule:evenodd;stroke:none"
           d="M 0,0 C 1.362,1.294 4.073,1.31 4.502,0.943 5.16,0.368 8.637,3.921 10.182,1.356 11.729,-1.201 9.127,-3.237 8.482,-3.245 7.855,-3.253 6.185,-3.314 5.91,-4.157 5.636,-4.999 2.052,-5.259 1.286,-4.34 0.521,-3.421 -1.362,-1.286 0,0" />
      </g>
    </g>
  </g>
</svg>
